/* XPM */
static char * c3p0_xpm[] = {
"64 64 678 2",
"  	c #000000",
". 	c #030303",
"+ 	c #131313",
"@ 	c #080808",
"# 	c #120F03",
"$ 	c #2E290C",
"% 	c #0F0F0F",
"& 	c #010101",
"* 	c #272727",
"= 	c #857218",
"- 	c #CAAE22",
"; 	c #363636",
"> 	c #070707",
", 	c #2B2B2B",
"' 	c #5D5846",
") 	c #9C861D",
"! 	c #B29923",
"~ 	c #C1A520",
"{ 	c #D1B21C",
"] 	c #B39922",
"^ 	c #9E8A36",
"/ 	c #565655",
"( 	c #262626",
"_ 	c #0D0D0D",
": 	c #202020",
"< 	c #262005",
"[ 	c #504511",
"} 	c #927E1E",
"| 	c #D3B41B",
"1 	c #C4A71E",
"2 	c #6F611B",
"3 	c #646051",
"4 	c #1A1A1A",
"5 	c #343434",
"6 	c #332B07",
"7 	c #B09717",
"8 	c #CAAC19",
"9 	c #D3B41C",
"0 	c #AD931A",
"a 	c #191919",
"b 	c #625624",
"c 	c #C3A820",
"d 	c #D6BD2C",
"e 	c #E8E85F",
"f 	c #D9C435",
"g 	c #CDAF1D",
"h 	c #C0A523",
"i 	c #38342C",
"j 	c #090909",
"k 	c #181818",
"l 	c #554912",
"m 	c #B79D1F",
"n 	c #D7BF2F",
"o 	c #EAEF67",
"p 	c #E1D94F",
"q 	c #DBC83C",
"r 	c #917D1C",
"s 	c #333128",
"t 	c #030200",
"u 	c #B69C1E",
"v 	c #D7BE2E",
"w 	c #EAED64",
"x 	c #E9EF66",
"y 	c #E3E057",
"z 	c #D3B720",
"A 	c #63540B",
"B 	c #0A0600",
"C 	c #D0B224",
"D 	c #D2B61F",
"E 	c #E4E159",
"F 	c #EBEE65",
"G 	c #D6BC2A",
"H 	c #957F17",
"I 	c #0E0E0E",
"J 	c #312E23",
"K 	c #927E19",
"L 	c #D2B31F",
"M 	c #D2B01B",
"N 	c #C99C17",
"O 	c #C89C17",
"P 	c #D2B11B",
"Q 	c #CDA619",
"R 	c #C99C18",
"S 	c #D0B23B",
"T 	c #DACC50",
"U 	c #E9EF67",
"V 	c #D6BD2A",
"W 	c #BCA21D",
"X 	c #9C8726",
"Y 	c #323232",
"Z 	c #655711",
"` 	c #CFAA1E",
" .	c #C79B2B",
"..	c #C79C2A",
"+.	c #D0AB1C",
"@.	c #D1AE1A",
"#.	c #D1AF1B",
"$.	c #D7BE2D",
"%.	c #CEAB2C",
"&.	c #D1B43E",
"*.	c #E5E25E",
"=.	c #D5BA28",
"-.	c #CDB120",
";.	c #8C791B",
">.	c #C89B17",
",.	c #C89E2E",
"'.	c #EAEE67",
").	c #EBEE67",
"!.	c #C59625",
"~.	c #C08714",
"{.	c #C18E1B",
"].	c #EAEC65",
"^.	c #DFD456",
"/.	c #BF8814",
"(.	c #D3B21B",
"_.	c #C69616",
":.	c #D6C045",
"<.	c #E1DB5A",
"[.	c #E0DA59",
"}.	c #D8C342",
"|.	c #CEAD20",
"1.	c #EAED65",
"2.	c #E6E863",
"3.	c #DFD758",
"4.	c #C99E24",
"5.	c #CCA419",
"6.	c #D3B21C",
"7.	c #C08813",
"8.	c #DBCD51",
"9.	c #CAD05E",
"0.	c #CDD25E",
"a.	c #E0D64D",
"b.	c #D4B722",
"c.	c #EAEE65",
"d.	c #E2E866",
"e.	c #C1C559",
"f.	c #DEE364",
"g.	c #C69826",
"h.	c #C99D18",
"i.	c #74763A",
"j.	c #7E813D",
"k.	c #D2D861",
"l.	c #C5C95A",
"m.	c #DBE064",
"n.	c #DCE165",
"o.	c #D4B822",
"p.	c #E6EC66",
"q.	c #D6DB63",
"r.	c #E4E966",
"s.	c #D3B31B",
"t.	c #C99D17",
"u.	c #D3B83D",
"v.	c #DBCF52",
"w.	c #E1DA51",
"x.	c #DAC83B",
"y.	c #D3B61F",
"z.	c #E0D74C",
"A.	c #E5E65D",
"B.	c #E4E360",
"C.	c #D9C84D",
"D.	c #CBA221",
"E.	c #CEA719",
"F.	c #CEB120",
"G.	c #8A7826",
"H.	c #CDAF1F",
"I.	c #C89F2C",
"J.	c #EAEB65",
"K.	c #E9EB65",
"L.	c #E9EC65",
"M.	c #D6BC28",
"N.	c #E1D84E",
"O.	c #E9EC64",
"P.	c #DED254",
"Q.	c #C18A13",
"R.	c #D1AF1A",
"S.	c #D0B21D",
"T.	c #C7AC25",
"U.	c #242320",
"V.	c #221A00",
"W.	c #D0B223",
"X.	c #D0AC1C",
"Y.	c #C08B18",
"Z.	c #C69A1A",
"`.	c #CBA218",
" +	c #C18B14",
".+	c #D3B31C",
"++	c #D3B51D",
"@+	c #D1B01F",
"#+	c #C79919",
"$+	c #9E8619",
"%+	c #282622",
"&+	c #191100",
"*+	c #CCA318",
"=+	c #CEA819",
"-+	c #CA9F18",
";+	c #CA9F19",
">+	c #CBA219",
",+	c #CFAB1A",
"'+	c #CBA318",
")+	c #9D8619",
"!+	c #232323",
"~+	c #C59415",
"{+	c #CBA118",
"]+	c #C39015",
"^+	c #CDA618",
"/+	c #0D0800",
"(+	c #695A19",
"_+	c #BCB64A",
":+	c #E4E158",
"<+	c #CFAB30",
"[+	c #C69517",
"}+	c #C59519",
"|+	c #736013",
"1+	c #6A5A12",
"2+	c #A47F17",
"3+	c #C69417",
"4+	c #DDCF4C",
"5+	c #7B6F24",
"6+	c #44423C",
"7+	c #B0AC4A",
"8+	c #E3DF57",
"9+	c #CFAC2F",
"0+	c #C69617",
"a+	c #C69618",
"b+	c #7A6613",
"c+	c #716112",
"d+	c #A68217",
"e+	c #C79617",
"f+	c #DCCE4A",
"g+	c #E3DF58",
"h+	c #47461E",
"i+	c #A18B1E",
"j+	c #D2B41E",
"k+	c #40370A",
"l+	c #342D0A",
"m+	c #624E12",
"n+	c #C28E17",
"o+	c #C38E15",
"p+	c #A47916",
"q+	c #463C0D",
"r+	c #695A15",
"s+	c #85701A",
"t+	c #8F6615",
"u+	c #8F6613",
"v+	c #876617",
"w+	c #8A7717",
"x+	c #272105",
"y+	c #A28C1D",
"z+	c #BDA21E",
"A+	c #151001",
"B+	c #736311",
"C+	c #D2B41D",
"D+	c #453B0A",
"E+	c #4B4008",
"F+	c #8E7A1D",
"G+	c #181100",
"H+	c #CBAF27",
"I+	c #D2B31D",
"J+	c #D2B41C",
"K+	c #CFB11F",
"L+	c #D0B21E",
"M+	c #99841C",
"N+	c #1A1502",
"O+	c #C9AD22",
"P+	c #2D2D2D",
"Q+	c #292202",
"R+	c #B39A19",
"S+	c #98831D",
"T+	c #CFAB19",
"U+	c #D5BA27",
"V+	c #E1D950",
"W+	c #DDCE44",
"X+	c #917C19",
"Y+	c #8E7B1D",
"Z+	c #A38B19",
"`+	c #D1B31C",
" @	c #B69C1C",
".@	c #625526",
"+@	c #0C0C0C",
"@@	c #201B03",
"#@	c #A99014",
"$@	c #98821D",
"%@	c #C59416",
"&@	c #CA9E19",
"*@	c #D0AC1B",
"=@	c #C49016",
"-@	c #D0AD26",
";@	c #E7E961",
">@	c #8B7716",
",@	c #C8AB1D",
"'@	c #97821A",
")@	c #706018",
"!@	c #C18A14",
"~@	c #DAC638",
"{@	c #887417",
"]@	c #978642",
"^@	c #9C8723",
"/@	c #6F5F13",
"(@	c #C7AA20",
"_@	c #C4A81D",
":@	c #AD9521",
"<@	c #6E5F17",
"[@	c #B0971E",
"}@	c #DAC63A",
"|@	c #D5B925",
"1@	c #8B7715",
"2@	c #CFB21F",
"3@	c #706013",
"4@	c #96811E",
"5@	c #947F1A",
"6@	c #020202",
"7@	c #040404",
"8@	c #151514",
"9@	c #6F6014",
"0@	c #BEA322",
"a@	c #B89D1F",
"b@	c #726215",
"c@	c #A68F21",
"d@	c #B0981B",
"e@	c #A9921F",
"f@	c #060400",
"g@	c #9D821C",
"h@	c #CEA81A",
"i@	c #C89A17",
"j@	c #C18914",
"k@	c #CEA71A",
"l@	c #CDA81B",
"m@	c #3E3409",
"n@	c #746315",
"o@	c #AD961F",
"p@	c #706115",
"q@	c #AF961B",
"r@	c #BCA01C",
"s@	c #372E05",
"t@	c #131312",
"u@	c #393939",
"v@	c #3C350F",
"w@	c #D3B41D",
"x@	c #B89D1C",
"y@	c #2D270A",
"z@	c #926816",
"A@	c #BF8716",
"B@	c #3A2806",
"C@	c #110D01",
"D@	c #978014",
"E@	c #A88F13",
"F@	c #423808",
"G@	c #333333",
"H@	c #9F8C41",
"I@	c #C4A81E",
"J@	c #B19820",
"K@	c #2C2506",
"L@	c #1D1D1D",
"M@	c #313131",
"N@	c #A0871D",
"O@	c #D1AE1B",
"P@	c #CCA319",
"Q@	c #CFAA1A",
"R@	c #C79817",
"S@	c #D0AE1D",
"T@	c #3B3108",
"U@	c #67570A",
"V@	c #675912",
"W@	c #0B0B0B",
"X@	c #020201",
"Y@	c #786718",
"Z@	c #B3921F",
"`@	c #A88D1B",
" #	c #887C55",
".#	c #2F2F2F",
"+#	c #A18B1D",
"@#	c #CDA719",
"##	c #CBA019",
"$#	c #CBA119",
"%#	c #D1B01A",
"&#	c #C2A61C",
"*#	c #9C861A",
"=#	c #1C1703",
"-#	c #332B04",
";#	c #BDA11C",
">#	c #6D5D13",
",#	c #070502",
"'#	c #D0B325",
")#	c #C99B17",
"!#	c #C08914",
"~#	c #5C4311",
"{#	c #545454",
"]#	c #9C871F",
"^#	c #CCAF1F",
"/#	c #C49218",
"(#	c #C28D15",
"_#	c #CA9D18",
":#	c #D2B21C",
"<#	c #C8A01B",
"[#	c #CAA91F",
"}#	c #BA8417",
"|#	c #C8A51D",
"1#	c #A7901D",
"2#	c #000600",
"3#	c #9F8719",
"4#	c #6E5D12",
"5#	c #050300",
"6#	c #020100",
"7#	c #020101",
"8#	c #D0B21F",
"9#	c #6C5C14",
"0#	c #080600",
"a#	c #0E0A01",
"b#	c #A27215",
"c#	c #785611",
"d#	c #0E0901",
"e#	c #0C0601",
"f#	c #174211",
"g#	c #237E23",
"h#	c #031203",
"i#	c #222222",
"j#	c #906712",
"k#	c #C08814",
"l#	c #CCA81E",
"m#	c #D0B220",
"n#	c #C2A61E",
"o#	c #100D02",
"p#	c #60520F",
"q#	c #736110",
"r#	c #95801C",
"s#	c #968015",
"t#	c #483D08",
"u#	c #171716",
"v#	c #101010",
"w#	c #616060",
"x#	c #827A6F",
"y#	c #916715",
"z#	c #795715",
"A#	c #7D6011",
"B#	c #877215",
"C#	c #7B5A0F",
"D#	c #7F6412",
"E#	c #867115",
"F#	c #79570E",
"G#	c #815D15",
"H#	c #8E6B31",
"I#	c #7F7E7D",
"J#	c #7E7E7E",
"K#	c #697E69",
"L#	c #228021",
"M#	c #051E05",
"N#	c #474747",
"O#	c #6E6E6C",
"P#	c #8A7617",
"Q#	c #BA981A",
"R#	c #D1B01B",
"S#	c #BEA31C",
"T#	c #867215",
"U#	c #0D0A01",
"V#	c #433E33",
"W#	c #BFA31F",
"X#	c #CEB01C",
"Y#	c #493E0E",
"Z#	c #1E1904",
"`#	c #747474",
" $	c #9B9284",
".$	c #AC7B18",
"+$	c #604E34",
"@$	c #3C3C3C",
"#$	c #3C3B3D",
"$$	c #191250",
"%$	c #0F1C3A",
"&$	c #0E2B0F",
"*$	c #3A3C3A",
"=$	c #92713D",
"-$	c #B98F4C",
";$	c #ABA192",
">$	c #A6A4A0",
",$	c #899889",
"'$	c #20741F",
")$	c #062006",
"!$	c #2F2808",
"~$	c #51450E",
"{$	c #CFB11E",
"]$	c #BBA01A",
"^$	c #8F7D31",
"/$	c #444444",
"($	c #171717",
"_$	c #B59C24",
":$	c #97831E",
"<$	c #8C8C8B",
"[$	c #A5A5A5",
"}$	c #A5A4AA",
"|$	c #4F3AEF",
"1$	c #3257B4",
"2$	c #2E812E",
"3$	c #A1A6A1",
"4$	c #BF8718",
"5$	c #AD9E8A",
"6$	c #878887",
"7$	c #9C8412",
"8$	c #625307",
"9$	c #201A02",
"0$	c #1B1B1B",
"a$	c #252525",
"b$	c #5F5847",
"c$	c #927E1C",
"d$	c #786717",
"e$	c #89761E",
"f$	c #B0971B",
"g$	c #9D871D",
"h$	c #474647",
"i$	c #5A5689",
"j$	c #665AE6",
"k$	c #8A84C6",
"l$	c #6A868C",
"m$	c #2E822D",
"n$	c #7A7B7A",
"o$	c #57524A",
"p$	c #60440D",
"q$	c #585046",
"r$	c #A28B1C",
"s$	c #C0A41C",
"t$	c #7D6A13",
"u$	c #2C2503",
"v$	c #625D4B",
"w$	c #AD941E",
"x$	c #312B0D",
"y$	c #BCA11F",
"z$	c #010000",
"A$	c #5B4E11",
"B$	c #5B4D68",
"C$	c #331BCA",
"D$	c #807E94",
"E$	c #647C64",
"F$	c #266A26",
"G$	c #858985",
"H$	c #565555",
"I$	c #231D04",
"J$	c #6D5E14",
"K$	c #6D5E13",
"L$	c #A38C1D",
"M$	c #BEA31B",
"N$	c #A68E19",
"O$	c #484231",
"P$	c #1E1E1E",
"Q$	c #B2981D",
"R$	c #AC931C",
"S$	c #4B4009",
"T$	c #8A7718",
"U$	c #CDB024",
"V$	c #303030",
"W$	c #CDAF1C",
"X$	c #C0A51E",
"Y$	c #C0A51F",
"Z$	c #C1A51E",
"`$	c #786817",
" %	c #272004",
".%	c #463E1F",
"+%	c #0A0A0A",
"@%	c #595445",
"#%	c #9B8418",
"$%	c #9A8418",
"%%	c #917E1D",
"&%	c #897619",
"*%	c #BA951B",
"=%	c #7F6614",
"-%	c #414141",
";%	c #564911",
">%	c #D3B41E",
",%	c #C69717",
"'%	c #D2B01C",
")%	c #C18B13",
"!%	c #7A5911",
"~%	c #4D420B",
"{%	c #CBAE22",
"]%	c #CBAF20",
"^%	c #3E350B",
"/%	c #292929",
"(%	c #050505",
"_%	c #9D8820",
":%	c #CEB11F",
"<%	c #C08913",
"[%	c #D3B11C",
"}%	c #D0B11E",
"|%	c #B99F21",
"1%	c #140E00",
"2%	c #140F00",
"3%	c #9A851B",
"4%	c #CBA31B",
"5%	c #8C7619",
"6%	c #A6881B",
"7%	c #CCA418",
"8%	c #CAAC1C",
"9%	c #9E8719",
"0%	c #9D871A",
"a%	c #2E2707",
"b%	c #393008",
"c%	c #8B7818",
"d%	c #9B851B",
"e%	c #060606",
"f%	c #977319",
"g%	c #D0AC1A",
"h%	c #393108",
"i%	c #CA9E18",
"j%	c #C59517",
"k%	c #C59518",
"l%	c #3B2D07",
"m%	c #876E4D",
"n%	c #A17525",
"o%	c #B99154",
"p%	c #C8A22B",
"q%	c #CDA81C",
"r%	c #6F5313",
"s%	c #846D1C",
"t%	c #AE951D",
"u%	c #CCA71B",
"v%	c #CDA819",
"w%	c #C99B18",
"x%	c #C69619",
"y%	c #392B07",
"z%	c #8C8C8C",
"A%	c #404040",
"B%	c #B98F4F",
"C%	c #896214",
"D%	c #1C0F00",
"E%	c #BB8518",
"F%	c #C08713",
"G%	c #CFA91A",
"H%	c #3A3108",
"I%	c #8F8F8F",
"J%	c #A9A298",
"K%	c #AAA194",
"L%	c #AAA294",
"M%	c #7B756C",
"N%	c #1E1700",
"O%	c #CCAB20",
"P%	c #C79717",
"Q%	c #C28E15",
"R%	c #312305",
"S%	c #969696",
"T%	c #787878",
"U%	c #1E1800",
"V%	c #C89C1A",
"W%	c #342806",
"X%	c #959595",
"Y%	c #3E3E3E",
"Z%	c #A2A2A2",
"`%	c #A4A4A4",
" &	c #D0B221",
".&	c #CEB126",
"+&	c #CDB126",
"@&	c #CDB127",
"#&	c #38300A",
"$&	c #656565",
"%&	c #857215",
"&&	c #070200",
"*&	c #6E6E6E",
"=&	c #6C6C6C",
"-&	c #7D7D7D",
";&	c #6B6B6B",
">&	c #4C4C4C",
",&	c #100C01",
"'&	c #837220",
")&	c #8F7C21",
"!&	c #9F8920",
"~&	c #787055",
"{&	c #373737",
"]&	c #4B4B4B",
"^&	c #6F6F6F",
"/&	c #626262",
"(&	c #3F3F3F",
"_&	c #312B0E",
":&	c #4F4517",
"<&	c #A78F1D",
"[&	c #4A4A4A",
"}&	c #2C2C2C",
"|&	c #8B7719",
"1&	c #383838",
"2&	c #575757",
"3&	c #453C13",
"4&	c #6C5E1C",
"5&	c #4F4415",
"                                                                                                                                ",
"                                                            . + @ # $   % &                                                     ",
"                                                            *     = -     ;                                                     ",
"                                                        > , ' ) ! ~ { ] ! ^ / ( .                                               ",
"                                                    _ : < [ } | | | | | | 1 2 2 3 4                                             ",
"                                                    5 6 7 8 | | | | | | | | 9 | 0                                               ",
"                                                  a b c | | | | | | | | | d e f g h i j                                         ",
"                                              & k l m | | | | | | | | | | n o p q 9 r s                                         ",
"                                                t u | | | | | | | | | | | v w x y z | A &                                       ",
"                                              > B C | | | | | | | | | | | 9 D E x F G H I                                       ",
"                                              J K L | M N N N O P | | | Q R N S T U V W X Y                                     ",
"                                              Z | | M `  . . ...+.@.#.$.%. . . .&.*.=.| -.                                      ",
"                                              ;.| | >.,.'.o o ).!.~.{.].o o o o ^./.#.| -.                                      ",
"                                              ;.(._.:.<.U U U U [.}.|.1.U U U U 2.3.4.5.-.                                      ",
"                                              ;.6.7.8.U U 9.0.U U a.b.c.U d.e.f.U U g.h.-.                                      ",
"                                              ;.6.7.8.U U i.j.U U a.b.c.U k.  l.U U g.h.-.                                      ",
"                                              ;.6.7.8.U U m.n.U U a.o.c.U p.q.r.U U g.h.-.                                      ",
"                                              ;.s.t.u.v.U U U U w.x.y.z.A.U U U B.C.D.E.F.                                      ",
"                                              G.H.9 O I.J.K.L.w M.s.6.| N.O.K.K.P.Q.R.S.T.U.                                    ",
"                                                V.W.s.X.Y.Y.Z.y.| `. +.+++@+Y.Y.#+(.| $+%+                                      ",
"                                                &+C | P *+*+=+| -+;+>+R ,+P '+*+=+| | )+!+                                      ",
"                                                &+C | | | | | | ~+{+6.]+^+| | | | | | )+:                                       ",
"                                                /+C | | | | | | | | | | | | | | | | | )+a                                       ",
"                                              %   (+_+:+E <+[+}+|+1+1+1+2+3+[+4+:+E 5+6+.                                       ",
"                                                    7+8+8+9+0+a+b+c+c+c+d+e+0+f+8+g+h+                                          ",
"                                                    i+9 | | | | 9 9 9 9 | | | | 9 j+k+                                          ",
"                                                    l+m+n+o+o+o+o+o+o+o+o+o+o+o+p+q+                                            ",
"                                                    r+s+t+u+u+u+u+u+u+u+u+u+u+u+v+w+x+                                          ",
"                                            .       y+z+A+A+A+A+A+A+A+A+A+A+A+A+B+C+D+                                          ",
"                                            E+F+G+H+I+J+K+K+K+K+K+K+K+K+K+K+K+K+L+| K+M+N+O+= P+                                ",
"                                          Q+R+S+&+C | | | | | | -+E.s.t.T+U+V+V+W+9 X+Y+Z+`+ @.@+@                              ",
"                                        @@#@| $@&+C | | | | | | %@&@*@=@-@x.U ;@V+C+k+>@| | ,@'@  .                             ",
"                      .               * )@| | S+&+C | | | | | | | {+!@.+V+U U ~@| C+k+>@| | {@    &                             ",
"                      +@            !+]@^@/@(@_@:@<@[@| | | | | | {+!@.+n }@}@|@| C+k+1@2@3@4@5@  6@                            ",
"                      7@          8@9@0@a@b@c@d@e@f@g@=+=+=+=+=+h@i@j@k@=+=+=+h@=+l@m@n@o@p@q@r@s@t@&                           ",
"                      &         u@v@w@| 9 x@y@      z@~.~.~.~.~.~.~.~.~.~.~.~.~.~.A@B@  C@D@| | E@F@6@                          ",
"                              G@H@I@| | J@K@L@@ M@7@N@O@O@O@P@~.Q@O@O@O@R@o+O@O@O@S@T@    U@| | | V@W@                          ",
"                      &   & X@Y@Z@`.>+`@ #.#      . +#| | @###h.$#Q@s.'+;+h.>+%#&#*#=#+@  -#;#| | >#:                           ",
"                      &   . ,#'#)#!#!#~#{#        & ]#^#^#/#0+9 (#_#:#!#<#[#}#|#1#2#  >     3#.+.+4#5#6#                        ",
"                          & 7#'#| .+.+8#9#        6@0#a#a#b#0+9 (#_#6.!#c#d#e#d#f#g#h#i#  & j#k#7.l#m#n#o#&                     ",
"                            % p#q#r#9 | s#t#u#. v#& w#x#y#z#A#B#C#D#E#F#G#H#I#J#K#L#M#N#O#P#Q#P@P@R#S#T#U#6@                    ",
"                      &       & W@V#W#X#| j+Y#Z#    `# $.$+$@$#$$$%$&$*$=$-$;$>$,$'$)$!$~${$| | | ]$^$/$($6@                    ",
"                      &           :   _$9 | 9 :$          <$[$}$|$1$2$3$[$;$4$5$6$    >@9 | | 7$8$9$0$                          ",
"                      .             a$b$c$j+d$e$f$f$f$g$  h$i$j$k$l$m$3$n$o$p$q$/$  r$s$| | t$u$f@&                             ",
"                      >               a v$w$x$;.| | | y$z$A$B$C$D$E$F$G$H$I$J$K$K$K$L$M$I+N$O$.                                 ",
"                      +@                P$    ;.| | | y$z$Q$R$            S$j+| | C+k+T$U$6#_                                   ",
"                      W@                  a$V$;.| | | y$z$Q$W$X$X$Y$X$Z$`$S$j+| | C+k+ %.%:                                     ",
"                      +%                    % @%#%$%$%%%&%*%=+| | | s.`.=%S$j+| | C+k+-%0$                                      ",
"                      +@                      L@($    ;%>%_.,%(.| s.'%)%!%~%{%]%]%{%^%/%                                        ",
"                      (%                        Y   _%:%| s.k@<%#.`. +[%}%|%1%2%2%1%6#I                                         ",
"                      6@                            3%| | | R.4%5%6%7%s.| 8%9%9%9%0%a%I                                         ",
"                      6@                            3%| | | | j+b%c%| | | | | | | C+k+I                                         ",
"                      (%                            d%| | | | j+b%c%| | | | | | | C+k+I                                         ",
"                      e%                            f%[+[+g%| j+h%c%| | | | | i%j%k%l%+@                                        ",
"                      e%                          6@m%n%o%p%h@q%r%s%t%u%v%=+=+w%e+x%y%I                                         ",
"                      >                             z%A%[$B%4$4$4$C%D%E%~.~.F%G%9 >%H%W@                                        ",
"                      >                             I%A%[$J%K%K%L%M%N%O%O@O@#.P%Q%n+R%j                                         ",
"                      >                             S%A%[$[$[$[$[$T%U%F.| | | P@R V%W%+@                                        ",
"                      >                             X%Y%Z%`%[$[$[$T%U%F. &.&.&.&+&@&#&k                                         ",
"                      e%                      $&          z%[$[$[$T%U%F.%&&&&&&&&&&&z$N#                                        ",
"                      +@                    *&=&-&-&-&-&-&;&;&;&;&>&,&'&)&!&!&!&!&!&!&~&{&                                      ",
"                      e%                    ]&^&[$[$[$[$[$/&(&(&W@_&:&:&<&| | | | | | )+:                                       ",
"                      .                     [&^&[$[$[$[$[$[$[$[$}&|&j+j+9 | | | | | | )+:                                       ",
"                      &                     [&1&2&2&2&2&2&2&2&2&+ 3&4&4&4&4&4&4&4&4&4&5&:                                       "};
