/* XPM */
static char * redstars_xpm[] = {
"64 64 433 2",
"  	c #150506",
". 	c #150606",
"+ 	c #160606",
"@ 	c #210B0A",
"# 	c #C0B0B0",
"$ 	c #FEFEFE",
"% 	c #E1D6D4",
"& 	c #1F0605",
"* 	c #1A0808",
"= 	c #1A0707",
"- 	c #140505",
"; 	c #130505",
"> 	c #140606",
", 	c #120505",
"' 	c #110505",
") 	c #1F0A09",
"! 	c #1E0A09",
"~ 	c #100504",
"{ 	c #100405",
"] 	c #100406",
"^ 	c #140506",
"/ 	c #150505",
"( 	c #320F0E",
"_ 	c #1A0606",
": 	c #0F0405",
"< 	c #0E0305",
"[ 	c #0C0305",
"} 	c #0B0305",
"| 	c #0D0406",
"1 	c #0C0304",
"2 	c #0D0404",
"3 	c #0A0305",
"4 	c #090305",
"5 	c #060304",
"6 	c #050203",
"7 	c #070304",
"8 	c #050304",
"9 	c #1D0908",
"0 	c #786362",
"a 	c #E4DBDA",
"b 	c #B2A1A0",
"c 	c #200A09",
"d 	c #170606",
"e 	c #130506",
"f 	c #180707",
"g 	c #110504",
"h 	c #100505",
"i 	c #110405",
"j 	c #100506",
"k 	c #120405",
"l 	c #0F0406",
"m 	c #0E0405",
"n 	c #0F0404",
"o 	c #0A0304",
"p 	c #090304",
"q 	c #080304",
"r 	c #060303",
"s 	c #1C0808",
"t 	c #2F1715",
"u 	c #210B0B",
"v 	c #110404",
"w 	c #140605",
"x 	c #120506",
"y 	c #160607",
"z 	c #170607",
"A 	c #110406",
"B 	c #0D0304",
"C 	c #220906",
"D 	c #0B0304",
"E 	c #070303",
"F 	c #050303",
"G 	c #170707",
"H 	c #120504",
"I 	c #130605",
"J 	c #2F1313",
"K 	c #3C1D1D",
"L 	c #160506",
"M 	c #120406",
"N 	c #160505",
"O 	c #240907",
"P 	c #190606",
"Q 	c #1D0706",
"R 	c #180606",
"S 	c #1B0707",
"T 	c #180607",
"U 	c #180706",
"V 	c #0F0505",
"W 	c #2C1211",
"X 	c #3F201F",
"Y 	c #190707",
"Z 	c #290B07",
"` 	c #230908",
" .	c #2A0B0A",
"..	c #190607",
"+.	c #1C0707",
"@.	c #1A0607",
"#.	c #220C0B",
"$.	c #452524",
"%.	c #0F0506",
"&.	c #270C08",
"*.	c #331109",
"=.	c #190706",
"-.	c #0C0306",
";.	c #7F421F",
">.	c #46200D",
",.	c #080305",
"'.	c #220D0C",
").	c #623A39",
"!.	c #240E0D",
"~.	c #160707",
"{.	c #220A07",
"].	c #1A0706",
"^.	c #130405",
"/.	c #170605",
"(.	c #0C0404",
"_.	c #080303",
":.	c #090303",
"<.	c #1B0606",
"[.	c #170706",
"}.	c #1F0808",
"|.	c #1D0708",
"1.	c #1B0706",
"2.	c #1D0807",
"3.	c #150605",
"4.	c #0D0405",
"5.	c #250D0B",
"6.	c #230C0B",
"7.	c #1D0707",
"8.	c #200807",
"9.	c #170506",
"0.	c #1C0909",
"a.	c #0D0305",
"b.	c #0E0404",
"c.	c #0A0303",
"d.	c #270C0A",
"e.	c #220908",
"f.	c #1C0807",
"g.	c #2E0C07",
"h.	c #280908",
"i.	c #260908",
"j.	c #0B0303",
"k.	c #1F0A08",
"l.	c #270E0C",
"m.	c #240807",
"n.	c #1E0707",
"o.	c #280A07",
"p.	c #5B3838",
"q.	c #A27575",
"r.	c #1D0808",
"s.	c #3A1409",
"t.	c #220907",
"u.	c #250808",
"v.	c #1E0807",
"w.	c #250E0E",
"x.	c #3B1E1E",
"y.	c #120605",
"z.	c #240D0C",
"A.	c #28100E",
"B.	c #1F0807",
"C.	c #1B0607",
"D.	c #1F0707",
"E.	c #3D1E1A",
"F.	c #5A3432",
"G.	c #2A0F0D",
"H.	c #290D0A",
"I.	c #250B0A",
"J.	c #170507",
"K.	c #2A110F",
"L.	c #482825",
"M.	c #260E0C",
"N.	c #6E4241",
"O.	c #2D1311",
"P.	c #220A09",
"Q.	c #210908",
"R.	c #290E0D",
"S.	c #532F2C",
"T.	c #280E0B",
"U.	c #41221E",
"V.	c #29120F",
"W.	c #4C2F2D",
"X.	c #AE8886",
"Y.	c #1E0908",
"Z.	c #1F0908",
"`.	c #361918",
" +	c #2D100E",
".+	c #2B0E0C",
"++	c #2B100D",
"@+	c #6E4243",
"#+	c #331413",
"$+	c #935C3D",
"%+	c #85563C",
"&+	c #2F1412",
"*+	c #250D0C",
"=+	c #1D0A0A",
"-+	c #1E0808",
";+	c #180506",
">+	c #663920",
",+	c #57301C",
"'+	c #2C0A08",
")+	c #2A0908",
"!+	c #130606",
"~+	c #1E0708",
"{+	c #330C0A",
"]+	c #340C0A",
"^+	c #2C0A0A",
"/+	c #2A0D0C",
"(+	c #2C0D0B",
"_+	c #340D0A",
":+	c #310B0A",
"<+	c #160605",
"[+	c #1A0908",
"}+	c #3C1208",
"|+	c #694E4D",
"1+	c #B79D9C",
"2+	c #391D1B",
"3+	c #1C0908",
"4+	c #210907",
"5+	c #270A07",
"6+	c #1E0706",
"7+	c #381108",
"8+	c #110506",
"9+	c #1C0607",
"0+	c #351512",
"a+	c #351513",
"b+	c #755A5A",
"c+	c #CAB3B1",
"d+	c #3C2421",
"e+	c #220A08",
"f+	c #5F403C",
"g+	c #694744",
"h+	c #301210",
"i+	c #1B0808",
"j+	c #1F0909",
"k+	c #4E302D",
"l+	c #938C8E",
"m+	c #A1999A",
"n+	c #533532",
"o+	c #220708",
"p+	c #1C0706",
"q+	c #1E0806",
"r+	c #1A0708",
"s+	c #3B1D19",
"t+	c #8A7778",
"u+	c #927D81",
"v+	c #321816",
"w+	c #160507",
"x+	c #230807",
"y+	c #250907",
"z+	c #250A07",
"A+	c #240A08",
"B+	c #2D100C",
"C+	c #31120D",
"D+	c #1F0708",
"E+	c #2B0A07",
"F+	c #2E0B07",
"G+	c #220807",
"H+	c #1C0708",
"I+	c #1F0706",
"J+	c #200808",
"K+	c #361716",
"L+	c #2A1110",
"M+	c #290A08",
"N+	c #360D0A",
"O+	c #240C0A",
"P+	c #8F6A6A",
"Q+	c #704B4A",
"R+	c #300B09",
"S+	c #2B0A09",
"T+	c #230808",
"U+	c #1D0607",
"V+	c #260B09",
"W+	c #200908",
"X+	c #210707",
"Y+	c #2A0A09",
"Z+	c #240808",
"`+	c #220B0B",
" @	c #1B0608",
".@	c #603D3C",
"+@	c #BE9797",
"@@	c #341818",
"#@	c #200707",
"$@	c #230806",
"%@	c #855848",
"&@	c #47261A",
"*@	c #270D0B",
"=@	c #2C0F0D",
"-@	c #1E0606",
";@	c #220808",
">@	c #452628",
",@	c #8D6969",
"'@	c #301312",
")@	c #1E0607",
"!@	c #220707",
"~@	c #260B07",
"{@	c #9D796C",
"]@	c #59392E",
"^@	c #330C09",
"/@	c #270C0B",
"(@	c #2A0C0A",
"_@	c #210706",
":@	c #240706",
"<@	c #210807",
"[@	c #1C0606",
"}@	c #280C0A",
"|@	c #250807",
"1@	c #1D0606",
"2@	c #391409",
"3@	c #270C07",
"4@	c #3C1A17",
"5@	c #270907",
"6@	c #1F0607",
"7@	c #BE9888",
"8@	c #8D6D63",
"9@	c #2D100D",
"0@	c #290C0A",
"a@	c #280A08",
"b@	c #280906",
"c@	c #1F0606",
"d@	c #441F15",
"e@	c #2E130E",
"f@	c #4E2A27",
"g@	c #3D1E1C",
"h@	c #39191A",
"i@	c #321616",
"j@	c #320F08",
"k@	c #371715",
"l@	c #301311",
"m@	c #200706",
"n@	c #220706",
"o@	c #724D4F",
"p@	c #604042",
"q@	c #2D0B08",
"r@	c #713110",
"s@	c #3D1A16",
"t@	c #351412",
"u@	c #220806",
"v@	c #471809",
"w@	c #2B0C0A",
"x@	c #33110E",
"y@	c #3C1815",
"z@	c #341411",
"A@	c #391108",
"B@	c #200607",
"C@	c #3D2524",
"D@	c #230706",
"E@	c #220705",
"F@	c #351311",
"G@	c #280B09",
"H@	c #2E0E0C",
"I@	c #250A08",
"J@	c #230707",
"K@	c #200606",
"L@	c #382322",
"M@	c #250706",
"N@	c #3E1916",
"O@	c #2A0D0B",
"P@	c #250806",
"Q@	c #270807",
"R@	c #320B08",
"S@	c #260807",
"T@	c #260706",
"U@	c #411B18",
"V@	c #260A09",
"W@	c #210606",
"X@	c #280807",
"Y@	c #300B08",
"Z@	c #290908",
"`@	c #290807",
" #	c #260907",
".#	c #230606",
"+#	c #220605",
"@#	c #250705",
"##	c #220606",
"$#	c #2C0E0C",
"%#	c #240806",
"&#	c #210607",
"*#	c #452320",
"=#	c #391B1B",
"-#	c #30110F",
";#	c #AA7E7C",
">#	c #65403F",
",#	c #270806",
"'#	c #33100E",
")#	c #240707",
"!#	c #6C413E",
"~#	c #5A3734",
"{#	c #210605",
"]#	c #896463",
"^#	c #92605F",
"/#	c #2C0B0A",
"(#	c #240705",
"_#	c #4A2726",
":#	c #321210",
"<#	c #250908",
"[#	c #2B0C09",
"}#	c #240908",
"|#	c #260A08",
"1#	c #2B0906",
"2#	c #290806",
"3#	c #341312",
"4#	c #5F3C3A",
"5#	c #45221F",
"6#	c #250A09",
"7#	c #200605",
"8#	c #321312",
"9#	c #270B0A",
"0#	c #2E0F0E",
"a#	c #230705",
"b#	c #310B09",
"c#	c #2A0B08",
"d#	c #270908",
"e#	c #2E0A08",
"f#	c #4D3735",
"g#	c #6E5856",
"h#	c #2D0D0A",
"i#	c #2F0E0C",
"j#	c #4B2622",
"k#	c #5D342E",
"l#	c #2A0907",
"m#	c #2A0C09",
"n#	c #270706",
"o#	c #260806",
"p#	c #230907",
"q#	c #230605",
"r#	c #3C1713",
"s#	c #270A09",
"t#	c #2B0A08",
"u#	c #220607",
"v#	c #210705",
"w#	c #41201F",
"x#	c #5B3434",
"y#	c #290907",
"z#	c #2E0C0A",
"  . + @ # $ % & * = . - ; ; ; ; ; ; > , ' ; ' , ) ! ~ ' { ] { ' { ' ' ' ; . + ^   ^ / ; ^ , ] + ( _ : < [ } | 1 2 3 4 5 6 5 7 8 ",
"+ +   9 0 a b c + d + e e . - ; ' , . f , g , , f f { ' ' h i j : : { i ; . . ^ . . ^ ^ , k { i   i ] l : m { 1 n o p q 2 q q r ",
"d + + s 9 t u s ^ > + > > > . ; ; , v ' , ' ; , ; . w g { h ' h : : h x ; . . + y z   - ; ] ] i A A l l B - C m D 2 7 E F 7 o 7 ",
"+ d + d d f d . > > > ; . . G > , ; , , i H > I ' d f { h h { h m : h , , > ; ^ > J K   L M A A M i { : < N O P - Q 7 q 6 7 q q ",
"R + R R S T L . ^ ^ ; ; w > > ; ; , , , ; , ' , ' U G h ~ i , ~ ' : V { ; U ^ ^   W X + Y ; ; ; , M A ] : [ L Z `  .[ p 5 p q p ",
"..d +.@.T d + . - e ; #.$.! ; , - ; , , ; , , , , + G ' { i . , : %.V , &.*.=.^ . ^ d + d x ;   i M ] l ] -.k ;.>./ 3 q 7 ,.p p ",
"R P _ T R + > w ; ; - '.).!.+ ^ ^ - / ; / ; ; , H g g ' ~., ' : : h : ' {.].; ^ .     R . + ^ e ^.A i l A 1 1 /.k 1 o o (._.:.4 ",
"_ P <.Y d . . ^ + d ; - [.. ;   - L / / - -   , - , ' ' G , g V m : l h @ ) , ; + - ^ d ^ }.|.; , i { : { < [ } D 1 D 3 : o :.p ",
"..S 1.T ^   ^ ^ U 2.;   - ^ . / 3.+ w + ^ ; - ; - ; k { ' , , : 4.> G , 5.6., e   ^ > + ^ + 7.  L k i m ] < m [ B 1 1 D D p p 4 ",
"P 8.7.... . ^ - . ; - R + + + / d d L d   9.R d - - - ; 3.- ' V : > 0.i > ; ; ^   ^ ^     ^ ^ ; - , , k { a.n b.m a.1 D D 4 c.(.",
"d.S Y + +     - + L . =.d + + / + d + /   R e.f.+ ; / ; - / , : m x : : ' , ; ^ + z   P R / - ^ N g.h.i.M m ' i m : a.1 1 3 j.p ",
"+...R d + + + ^ .   d L + k.l.R L R d R R d ..d + / . > / ; , { m m l { , d .   ^   L P m.n.^ ^ 7.o.<.^ i : ; ' { V 4.B B D 1 c.",
"d d + d +   ^ .   d + d d p.q.r.R P @.T R P R d d d d +   - ; { : : ' ~ ' ' . r.d     L s.t.-   u.- e M A i z ; ' V m B B 1 1 1 ",
"+ . y     . - R   + + v.P w.x.S R R ..P R _ P R R d + + / - , l : : y.' ; ; ^ +.2.@.    d L ^ ^ ^ ^ e A M d + ; ' V : 2 B 1 1 B ",
". . y z.A.> . 2.d ^ 3.S v.d + R +.B.@.C.d.D.R ....d d d + L + g ' h , , ' ; - + d ..L L L L     L ^   ^ e ^ ; , ~ { m (.2 2 2 4.",
". . . E.F.+ - > ^ + T d R T = ].G.H.@.= I.7.@.P @.= ..@...S = H ; ' , , ^ d ; ^ J.T ^   L L   L ^     ^ 9.+ ' , ' ; m a.: ; B 4.",
"- . > r.) > ;     + K.L.U + R M.N.O...= P.Q.S R.S.T.S ..B.d ; , , ' , , ; + -   ^ ^   + L L R C.    L   L _ , , ' - h (.m n m m ",
"    . Y U.V..   L - W.X.Y.+ 7.Z.`.@ T .. +.+C.++@+#+S T = + ^ , , , , ; , ; .     .   d L       L   ^ ^ ^ ^ ' , ' ; ' { $+%+B : ",
".   + R &+*+L L + L . =++ R R ..R R ..P 7.+.@.+.2.-+R R Y ... ; ; ; ; ^ e . +       R +   J./ J.;+. - ^ L . ; ; , ; , V >+,+m ' ",
"L   d + + L d + . ^ L d + d R P ..Y R T Y ..@.= = S @.= Y ..R ; ^ > ; ; e e . . y   . L   R P '+)+R +.  + d !+;   ; ' : 4.4.P , ",
"d d d d R d R + d d L P R R P R ..T @.P = +.= @.S = Y = ..R S d ; z . . e ^ .   + ^ +   9.~+u.{+]+7.^+d R . > ,   d , ' 4.m m 4.",
"R R + R d R R d d R P ..@.......@..._ ..+.S P = S S = P @.@...+.- ; ; . . . +   + / d + L /+(+_+:+..+ 9.d . ; ; ^ <+B.' ; : : m ",
"R + R d R P P R R ...._ .._ @._ ].= C.S @.T R Y S = Y @.@.@...d f [+G = >   + + + + + 7...C.D.}+D.L   L 9.+ ; > . - R ' ' : : m ",
"+ d d d T P P _ P R @.+.<.@.S @.C._ C.S @.= U 7.~+= Y = = = d d |+1+2+3+> d d d S R 4+5+v.;+6+7+P d   d d d w e ^ ^ ; 8+h { : : ",
"+ R P R P P ..P P R ..C.@...9+C.7.= @.@.S ..n.0+a+7...Y = = R T b+c+d+> . + z + e+f+g+Z = 9++.d 9.d + ..R + > !+^ ^ + , R ^ { { ",
"  T d R R d ..P ..@.@.= ..S = P = C.C.C.8.@.B.h+R.....= = C.= 1.i+j++ - y y + = k+l+m+n+S R C.+ o+P R ..T L ^ ^ L d d ^   p+{ q+",
"+ . + d R ....P _ P @.@...D.@.S C.@.@.@.@.= @.= @...R ..P @.r+= v.+ + R + d d p+s+t+u+v+..z T z ..w+..@.x+y+n.      ^ e ; ; i z+",
"d   d d R T R R P @.Y @.= @.= @.P @.@.Y ..Y = Y ]...Y R ..= = 7.A+R ].= d f d + = B+C+=...C.C...T ..D+S E+F+G+  d L   > ^ G+e { ",
"d d . + + + + d R R T ..P ..= p+= @.@.....Y ....Y f d d ..T Y = Y T P = + S v.T T @.S ~+7.H+9+..T z 9+C.I+@.+   w+..@.  . + , l ",
"L . + + + . + + . d R ..C...T P P C.Y ......T @...@.P d d T Y Y Y _ @...d = +.d d ..= +.+.7.9++.= +.@.C.n.P R + R 2.J+  >   ; { ",
". + d   L + . +   . + ......@.@.1._ T ......@.@.P R d R d ..Y = @.+.K+L+T +.v.f ..@.@.= @.@.@.n.C.7...@.@...@.M+N+n.L   L d   ; ",
"  Y.O+> + + d     + + T ........C.C.C.9+S C.@.@.@.P R ..d ......Y f.P+Q+v.+.7.....= = C.+.D.S C.C.= ..@.@.@...i.R+_ T   S+T+  ^ ",
"  Y Z.  <+9.  + + + . d R @.@.= = S p+U++.+.@...@..._ R R T ....R +.V+W+@.= Y = ....= +.S X+n.@.C.C.@.@.C.@...P R L     Y+Z++ 2.",
"  + d / . + d d 9.  / + R ....@.@.7.+.U+9++.p+@.S C...@.@...= T `+K.= C.= = T = S S +.= S D.n.S C. @S ..@.C...C...L L ; d 9.  + ",
"+ d / d + 9.P 2...P ..R T T ..Y S S 7.+.7.+.+.+.S S S S @.= ..]..@+@@@= @.Y @.S +.#@$@S 7.7.C.C.9++.U+X+n.+...@.6+%@&@n.L L + ^ ",
"L 3.+ R d ;+R *@n.P P ..@.T C.Q.=@7.+.7.7.-@7.n.7.+.+.7.I++.@.;@>@,@'@-+7.S = C.7.+.6+7.7.+.S 9+)@6+6+7.!@+.n.S ~@{@]@^@d P R   ",
". 9.d d R R P C...C.@.C.@.@._ -+/@S +.6+7.Q Q 7.+.+.#@7.D.D.9+G+f.S 8.(@G++.C.7.Q +.Q Q +.+.+.S C.9+Q _@:@U+D.+._ D.R R ..@.P L ",
"R R R P R R P _ v.<@7.9+[@<.1.S I.}@7.n.|@D.D.-@Q n.n.+.p++.+.S ].P S n.G+7.S Q p++.7.D.7.n.+.7.U+1@1@D.U+Q 7.@._ 2@3@x+n.9.J.R ",
"d d d R R R P G.4@+.+.[@U+7.1@+.8.Q.+.p+n.6+6+6+7.n.7.7.+.7.9+S @.@.9+C.7.n.$@I+7.+.n.7.n.n.n.D.5@!@6@D.7.9+U+..6+7@8@7.....R J.",
"P P R +.=.P ..I.9@Q p+U+9+7.7.p+9+p+n.B.7.Q 6+n.n.p++.Q 1@+.S Y = = C.S = 0@a@Q Q n.7.7.n.I+I+#@b@D.c@)@n.7.n.= 7.d@e@7.@.R ..R ",
"R P +.f@g@@.@.S +.+.Q Q -@D.n.n.6+p+n.n.S Q D.n.+.+.7.+.+.S S C...+.@.S C.t.x+-@7.n.)@Q n.n.7.n.6+7.X+h@i@9+7.9+D.+.~+@.C.7.j@Q ",
"R R = k@l@@.C.+.D.Q 6+I+D.I+#@m@c@7.6+Q Q n.I+-@6+-@+.9++.+.p+1.S p+S S +.n.n@n.I+x+X+6+n.7.7.n.D.7.Z+o@p@+.9+S +.+.q@n.9+g.r@G+",
"d T ....P @.S n.<@I+#@X+m@_@_@m@I+m@!@m@n.#@6+n.n.6+7.7.+.9+7.9+S +.= C.7.)@_@D.#@s@t@Q 7.m@n.n.m@u@v@|@Z+D.n.m@I+Q +.+.6++.#@@.",
"r.+ R ....9+S +.I+I+X+n@_@_@n@n@n@w@x@m@Q #@D.I+I+I+6+6++.7.n.C.= S = C.7.7._@m@m@y@z@m@D.n.D.D.m@n@A@n@B@I+7.7.7.Q S Y Y Y S 9+",
"C@. d P @.@.7.)@I+_@m@n@D@n@_@_@E@$@x+_@#@F@G@m@m@I+D.6+6+7.<@n.S = C.7.H@I@m@m@D@X+I+I+n._@I+J@_@I+#@K@D.)@n.= +.n.I+= +.S Y = ",
"L@+ d T C.1.C.n.n.D@_@n@D@D@D@M@n@_@_@m@#@N@O@I+#@m@I+7.1@p+n.+.= S = +.<@D.I+_@m@6+D.m@D._@I+n@_@_@P@m@-@-@)@D@I+I+n@<@<.U+= Y ",
"- + R R _ S S 7.D.m@_@D@:@:@D@D@_@_@_@m@m@I+m@I+m@K@D.6+n.+.[@C...@.S D.7.n.m@_@_@n@m@m@Q@R@S@S@_@T@S@6+#@+.)@D@#@I+5@U@V@7.= S ",
"d d ....@.+.+.p+6+_@n@D@:@:@D@:@:@n@_@_@X+n@m@D.m@_@I+7.[@Q 9+U+..C.+.Q Q I+m@_@W@m@_@m@X@Y@5@Z@n@T@`@D.#@9+7.I+D.K@#@.+X+n.S 7.",
"R 7.= @.9+C.+.Q 6+I+m@n@n@D@:@:@n@n@D@n@J@ ##@n.m@_@m@n.m.m.6+@...C.9++.7.c@_@n@n@n@_@m@_@n@W@_@D@.#+#X+D.+.7.6+I+6+_@<.6+7.D.I+",
"@.R @...S @.<.7.6+#@D.n@D@@#D@:@D@D@_@n@D@D@m@#@n@n@m@D.#@#@+.= @.S S D.#@I+D@_@n@n@n@m@_@X+m@_@D@D@####-@U+7.I+m@I+#@Q 6+B@c@_@",
"= _ ..= = = C.7.6+m@I+n@_@D@x+$#%#n@D@D@_@m@m@m@#@#@_@_@6++.S n.C.S S 6+m@#@n@_@D@D@&#n@n@n@!@n@.###D@D@n@6@7.D.#@W@I+7.K@6@B@n@",
"*#=#..@.C.C.9+Q Q 6+n.m@_@_@-#;#>#D@n@X+n@X+m@_@m@#@_@n@D.6++.7.D.D.+.6+D.D.n@D@,#n@:@'#M+)#:@:@J@:@.#D@##W@m@I+_@_@m@n.I+B@K@##",
"!#~#_ C.S 9+C.C.7.Q D.m@{#m@<@]#^#n@_@X+_@_@m@_@#@m@m@#@a@#@1@n.n.n.7.6+n.m@X+:@:@D@D@/# #:@:@(#D@D@D@.#W@m@V@_#:#W@m@m@#@#@n@##",
"+.S <.C.S C.+.+.7.Q 1@-@m@I+_@I+<##@m@##_@_@n@_@I+m@m@_@[#G++.}#|#Q 6+I+m@#@_@D@(#:@D@D@n@_@1#2#:@.#:@D@n@#@3#4#5#m@D.#@6@m@W@n@",
"B.6#7.+.+.+.p+6+7.Q 7.n.D.#@D.X+_@_@_@#@_@_@K@_@D.7#m@m@_@n.+.7.n.6+#@$@#@I+n@D@M@:@T@:@!@!@M@D@D@D@D@n@W@B@G+8#9#X@J@B@B@D.n@D@",
"e.0#6+7.S 7.7.+.p+p++.6+6+D.I+m@m@_@m@_@_@_@m@m@m@6+m@_@n@Q Q 7._@I+D.D@n@n@n@(#@#@#a#n@:@X@b#n@X+J@_@c@_@S@#@#@_@:@n@K@W@m@n@D@",
"-+= +.7.+.+.+.+.+.U+7.I+n.I+m@#@m@m@#@x+c#d#m._@#@I+_@_@I+)@6+Q 6+I+_@W@W@D@n@D@@#:@n@D@:@X@e#D@D@X@D@m@K@K@K@#@n@_@D@m@_@n@D@D@",
"f#= p+Q n.Q 6+)@6+Q D.x+7.n.m@x+I+n@!@n@%#|@S@m@_@_@_@m@7.Q 7.7.c@m@n@_@W@S@h.D@,#X@:@D@:@n@n@_@a#'+S@D._@_@B@n@.###X+W@_@&#n@D@",
"g#8.n.6+6+I+D.6+6+6+Q 6+6+n.6+J@I+h#i#m@K@n@n@m@m@m@#@D.D.p+Q 7.#@m@D@n@:@j#k#P@X@l#:@D@:@S@D@_@n@D@n@_@D@n@W@_@n@B@n@n@_@##D@n@",
") 7.7.Q 6+D.D.#@D.Q Q Q n.D.m@m@m@M+a@_@#@D.X+_@K@m@m@m@K@D.m@I+_@n@:@D@:@m#H@:@,#n#M@:@:@%#%#n@n@W@##W@n@.###_@_@n@_@####:@:@:@",
"S Q 6+n.D.D.I+#@D.c@6+m@n.D.6@#@m@I+m@m@_@_@_@W@m@K@I+m@D.I+D.I+n@n@o#:@D@:@P@@#@#M@:@D@o#J@$@n@m@B@n@W@##n@n@n@W@:@D@:@##!@D@D@",
"p#7.n.7.7.n.I+W@D. .x+I+I+I+_@_@_@n@_@n@D@D@n@n@_@#@n.K@m@K@m@m@m@n@:@:@:@:@:@:@M@M@:@:@(#_@W@##_@&#n@q###X+X+n@W@W@n@D@n@D@D@n@",
"B.+.Q +.6+n.n.m@#@r#s#6+m@K@m@W@D@n@_@n@t#:@n@_@D@W@K@_@P@_@_@_@##n@:@:@:@:@:@D@:@:@:@n@D@D@n@%#n@X+u#:@:@##v#n@_@_@D@D@:@n@##n@",
"S S 7.+.S +.D.Q 7.w#x#D.I+K@_@E@D@:@D@n@:@:@:@:@D@m@_@D@y#n@#@z#P@n@D@D@D@:@:@:@@#o#M@:@D@D@P@M+:@o#:@D@M@q##@J@D@n@D@n@D@:@`@M@"};
