/* XPM */
static char * stars_xpm[] = {
"64 64 693 2",
"  	c #000000",
". 	c #010101",
"+ 	c #020202",
"@ 	c #040404",
"# 	c #030303",
"$ 	c #040402",
"% 	c #030301",
"& 	c #010200",
"* 	c #030305",
"= 	c #020106",
"- 	c #040500",
"; 	c #020200",
"> 	c #050402",
", 	c #010000",
"' 	c #050505",
") 	c #060606",
"! 	c #040603",
"~ 	c #080403",
"{ 	c #050608",
"] 	c #030502",
"^ 	c #030102",
"/ 	c #000407",
"( 	c #050304",
"_ 	c #040406",
": 	c #020300",
"< 	c #060604",
"[ 	c #050503",
"} 	c #070705",
"| 	c #090907",
"1 	c #040203",
"2 	c #030400",
"3 	c #050601",
"4 	c #080806",
"5 	c #020401",
"6 	c #090502",
"7 	c #07040B",
"8 	c #040D0A",
"9 	c #0E0A0B",
"0 	c #000500",
"a 	c #020305",
"b 	c #030200",
"c 	c #252422",
"d 	c #100F0D",
"e 	c #010100",
"f 	c #010302",
"g 	c #0B0A06",
"h 	c #060501",
"i 	c #080705",
"j 	c #0A090F",
"k 	c #0B0E03",
"l 	c #0C0A0F",
"m 	c #0B090A",
"n 	c #080206",
"o 	c #050507",
"p 	c #070604",
"q 	c #090806",
"r 	c #0C0B10",
"s 	c #080800",
"t 	c #0E0C0F",
"u 	c #08070C",
"v 	c #0A0104",
"w 	c #090909",
"x 	c #353430",
"y 	c #333134",
"z 	c #0A0905",
"A 	c #0D0804",
"B 	c #2A2426",
"C 	c #1E303C",
"D 	c #02050A",
"E 	c #070906",
"F 	c #0A0907",
"G 	c #000301",
"H 	c #080808",
"I 	c #0F0F0F",
"J 	c #090A05",
"K 	c #080702",
"L 	c #5C5C54",
"M 	c #666165",
"N 	c #151517",
"O 	c #030504",
"P 	c #100D08",
"Q 	c #231A13",
"R 	c #111610",
"S 	c #97A0A5",
"T 	c #A0D1D8",
"U 	c #122D3E",
"V 	c #040300",
"W 	c #050004",
"X 	c #020607",
"Y 	c #101010",
"Z 	c #020204",
"` 	c #0B0C07",
" .	c #060702",
"..	c #050500",
"+.	c #27241B",
"@.	c #2F2B2C",
"#.	c #030104",
"$.	c #040605",
"%.	c #070200",
"&.	c #21170E",
"*.	c #2A2E31",
"=.	c #7DA6A8",
"-.	c #A5E8D7",
";.	c #1E5870",
">.	c #080000",
",.	c #010609",
"'.	c #050308",
").	c #060100",
"!.	c #0B0B0B",
"~.	c #0B0B09",
"{.	c #171715",
"].	c #060407",
"^.	c #080300",
"/.	c #181B22",
"(.	c #5F6275",
"_.	c #1A1C2B",
":.	c #0A0B06",
"<.	c #121210",
"[.	c #050704",
"}.	c #000201",
"|.	c #070602",
"1.	c #040905",
"2.	c #070400",
"3.	c #0A0102",
"4.	c #010602",
"5.	c #060405",
"6.	c #040000",
"7.	c #477874",
"8.	c #72C2A5",
"9.	c #121C28",
"0.	c #08070D",
"a.	c #000400",
"b.	c #030106",
"c.	c #65605C",
"d.	c #060805",
"e.	c #131512",
"f.	c #0B0D0C",
"g.	c #000303",
"h.	c #060004",
"i.	c #020609",
"j.	c #030002",
"k.	c #878D8D",
"l.	c #FEFEFF",
"m.	c #B3B8BB",
"n.	c #0E0F11",
"o.	c #130E12",
"p.	c #090408",
"q.	c #000304",
"r.	c #080401",
"s.	c #010600",
"t.	c #040301",
"u.	c #000A01",
"v.	c #090001",
"w.	c #0A0603",
"x.	c #060201",
"y.	c #050200",
"z.	c #0F050D",
"A.	c #020D09",
"B.	c #080202",
"C.	c #2C2825",
"D.	c #020403",
"E.	c #333532",
"F.	c #4C4E4B",
"G.	c #424443",
"H.	c #0E100F",
"I.	c #1E1C1D",
"J.	c #182315",
"K.	c #000202",
"L.	c #0B0507",
"M.	c #040100",
"N.	c #788E8B",
"O.	c #B3D7D7",
"P.	c #384F57",
"Q.	c #050306",
"R.	c #050100",
"S.	c #020605",
"T.	c #080607",
"U.	c #09090B",
"V.	c #030907",
"W.	c #0B0205",
"X.	c #060B05",
"Y.	c #090708",
"Z.	c #000C02",
"`.	c #070709",
" +	c #080904",
".+	c #0A080B",
"++	c #2C2E2B",
"@+	c #3B3D3C",
"#+	c #222423",
"$+	c #070908",
"%+	c #AFA782",
"&+	c #786C52",
"*+	c #080609",
"=+	c #0A080D",
"-+	c #111A1F",
";+	c #1A201C",
">+	c #000307",
",+	c #050A04",
"'+	c #050102",
")+	c #070304",
"!+	c #080A09",
"~+	c #090B08",
"{+	c #070302",
"]+	c #070707",
"^+	c #090100",
"/+	c #060709",
"(+	c #090A02",
"_+	c #010504",
":+	c #06030A",
"<+	c #000102",
"[+	c #1A1C1B",
"}+	c #0D0F0E",
"|+	c #63684A",
"1+	c #6F6353",
"2+	c #040F09",
"3+	c #010703",
"4+	c #130A03",
"5+	c #121013",
"6+	c #050400",
"7+	c #020100",
"8+	c #0B0C04",
"9+	c #070800",
"0+	c #090303",
"a+	c #020703",
"b+	c #0D0304",
"c+	c #0A0001",
"d+	c #050600",
"e+	c #030000",
"f+	c #020008",
"g+	c #040308",
"h+	c #080B04",
"i+	c #070506",
"j+	c #010300",
"k+	c #2E353D",
"l+	c #486A6C",
"m+	c #192D34",
"n+	c #010002",
"o+	c #040B03",
"p+	c #090504",
"q+	c #070300",
"r+	c #050706",
"s+	c #030500",
"t+	c #000605",
"u+	c #0C020A",
"v+	c #000402",
"w+	c #020500",
"x+	c #050000",
"y+	c #09070A",
"z+	c #030801",
"A+	c #000302",
"B+	c #090506",
"C+	c #8DA6AB",
"D+	c #B7D7E2",
"E+	c #A9C6D8",
"F+	c #3E565A",
"G+	c #0E0808",
"H+	c #090B0A",
"I+	c #020001",
"J+	c #010409",
"K+	c #000501",
"L+	c #0A0A08",
"M+	c #000604",
"N+	c #020003",
"O+	c #0A0E0F",
"P+	c #0D0D0D",
"Q+	c #070508",
"R+	c #040205",
"S+	c #0B0706",
"T+	c #7F9B8C",
"U+	c #BDCBCE",
"V+	c #82A8B3",
"W+	c #435559",
"X+	c #090000",
"Y+	c #0B0509",
"Z+	c #080204",
"`+	c #010204",
" @	c #161616",
".@	c #AE9590",
"+@	c #211F20",
"@@	c #000100",
"#@	c #0A0702",
"$@	c #0A0809",
"%@	c #060608",
"&@	c #020107",
"*@	c #0E0E0E",
"=@	c #000200",
"-@	c #343B34",
";@	c #727D77",
">@	c #24332E",
",@	c #000300",
"'@	c #020308",
")@	c #120F06",
"!@	c #625E53",
"~@	c #14100D",
"{@	c #010006",
"]@	c #000002",
"^@	c #37535E",
"/@	c #96BAC6",
"(@	c #28363F",
"_@	c #040507",
":@	c #0C0201",
"<@	c #0A0C09",
"[@	c #0B0505",
"}@	c #020806",
"|@	c #030406",
"1@	c #0C0200",
"2@	c #001915",
"3@	c #AFCFCE",
"4@	c #FBFBFF",
"5@	c #80A2A3",
"6@	c #000103",
"7@	c #0F0B08",
"8@	c #040001",
"9@	c #090A0C",
"0@	c #17322D",
"a@	c #D5F6EF",
"b@	c #FEFFFF",
"c@	c #709890",
"d@	c #030804",
"e@	c #010004",
"f@	c #688485",
"g@	c #91B0B2",
"h@	c #121C1B",
"i@	c #030207",
"j@	c #060807",
"k@	c #070700",
"l@	c #0E0603",
"m@	c #0E0903",
"n@	c #000404",
"o@	c #0A0000",
"p@	c #07060B",
"q@	c #2C2421",
"r@	c #1D1415",
"s@	c #080405",
"t@	c #060200",
"u@	c #04080B",
"v@	c #040807",
"w@	c #0B0801",
"x@	c #0F0601",
"y@	c #060803",
"z@	c #241711",
"A@	c #826E65",
"B@	c #8A7B78",
"C@	c #0C070B",
"D@	c #050908",
"E@	c #090804",
"F@	c #090600",
"G@	c #020701",
"H@	c #000403",
"I@	c #675048",
"J@	c #8C6B5C",
"K@	c #6B534F",
"L@	c #150F13",
"M@	c #0B0A08",
"N@	c #0D0A05",
"O@	c #36332E",
"P@	c #080703",
"Q@	c #040601",
"R@	c #060503",
"S@	c #0A0404",
"T@	c #27282A",
"U@	c #1F1E24",
"V@	c #020006",
"W@	c #080A07",
"X@	c #545A58",
"Y@	c #929C9D",
"Z@	c #8A8D92",
"`@	c #2C2930",
" #	c #010103",
".#	c #181914",
"+#	c #222220",
"@#	c #030706",
"##	c #09080D",
"$#	c #48534B",
"%#	c #A5B5AB",
"&#	c #9FA5A1",
"*#	c #1F1F1F",
"=#	c #141412",
"-#	c #020400",
";#	c #454F47",
">#	c #313330",
",#	c #000602",
"'#	c #0A0605",
")#	c #151F17",
"!#	c #58685E",
"~#	c #242D2C",
"{#	c #060000",
"]#	c #46534A",
"^#	c #A9C1B3",
"/#	c #7E918F",
"(#	c #626868",
"_#	c #303934",
":#	c #75857B",
"<#	c #5C6D63",
"[#	c #434844",
"}#	c #04050A",
"|#	c #060300",
"1#	c #030708",
"2#	c #070206",
"3#	c #050801",
"4#	c #11110F",
"5#	c #080309",
"6#	c #0A030B",
"7#	c #0E040C",
"8#	c #0B060C",
"9#	c #000504",
"0#	c #0E0D09",
"a#	c #0E0D08",
"b#	c #0C0E0D",
"c#	c #131416",
"d#	c #12130E",
"e#	c #0F100B",
"f#	c #0D0502",
"g#	c #121411",
"h#	c #292E2A",
"i#	c #191B1A",
"j#	c #12110D",
"k#	c #1C1B16",
"l#	c #14130E",
"m#	c #201F24",
"n#	c #09080E",
"o#	c #0C0E09",
"p#	c #10110C",
"q#	c #0F1521",
"r#	c #17202F",
"s#	c #0D0407",
"t#	c #10120F",
"u#	c #0E140A",
"v#	c #141611",
"w#	c #070803",
"x#	c #141414",
"y#	c #C9C8CE",
"z#	c #D0CDD6",
"A#	c #110C13",
"B#	c #151712",
"C#	c #0A0F13",
"D#	c #C0C0BE",
"E#	c #CEDFE9",
"F#	c #1E3344",
"G#	c #0F120B",
"H#	c #08090B",
"I#	c #0D1114",
"J#	c #C5C9CA",
"K#	c #FCFFFF",
"L#	c #66666E",
"M#	c #0E100D",
"N#	c #111717",
"O#	c #C5D9D7",
"P#	c #B2E0F0",
"Q#	c #385B71",
"R#	c #0E0906",
"S#	c #0D0B0E",
"T#	c #121212",
"U#	c #2F2F31",
"V#	c #11100C",
"W#	c #2B3737",
"X#	c #606C6C",
"Y#	c #1A2624",
"Z#	c #464845",
"`#	c #515350",
" $	c #29504B",
".$	c #16383A",
"+$	c #0C050D",
"@$	c #110D0E",
"#$	c #0C070E",
"$$	c #0C0C0A",
"%$	c #2D2D2D",
"&$	c #68676F",
"*$	c #0B0B0D",
"=$	c #31302C",
"-$	c #8F8F8D",
";$	c #090601",
">$	c #0D0E06",
",$	c #050B01",
"'$	c #040C01",
")$	c #0C0D07",
"!$	c #1D1D1B",
"~$	c #2B2A2F",
"{$	c #070B0A",
"]$	c #0A0A0C",
"^$	c #100805",
"/$	c #0A0406",
"($	c #131814",
"_$	c #060700",
":$	c #0D0E09",
"<$	c #181A19",
"[$	c #010506",
"}$	c #070802",
"|$	c #67776D",
"1$	c #4C5D55",
"2$	c #060105",
"3$	c #0A0B0D",
"4$	c #141517",
"5$	c #0C0500",
"6$	c #000A02",
"7$	c #060701",
"8$	c #161511",
"9$	c #37483E",
"0$	c #84958D",
"a$	c #252324",
"b$	c #0E0D0B",
"c$	c #040509",
"d$	c #0A0A0A",
"e$	c #17181A",
"f$	c #535456",
"g$	c #090E08",
"h$	c #131812",
"i$	c #121814",
"j$	c #08080A",
"k$	c #141318",
"l$	c #353736",
"m$	c #181D16",
"n$	c #545358",
"o$	c #0A0F0B",
"p$	c #141510",
"q$	c #717276",
"r$	c #FBFFFF",
"s$	c #9B9FA2",
"t$	c #0A0E0D",
"u$	c #080D09",
"v$	c #060B07",
"w$	c #090A04",
"x$	c #282828",
"y$	c #B3B2B8",
"z$	c #C9C7D2",
"A$	c #35343C",
"B$	c #262920",
"C$	c #676E74",
"D$	c #68696B",
"E$	c #050409",
"F$	c #66696E",
"G$	c #F3FEFF",
"H$	c #919B9C",
"I$	c #1C1E1B",
"J$	c #070C08",
"K$	c #D2D2DA",
"L$	c #817F8A",
"M$	c #0B0708",
"N$	c #7F7C6B",
"O$	c #6A636B",
"P$	c #65624F",
"Q$	c #16110E",
"R$	c #14130F",
"S$	c #161719",
"T$	c #48494E",
"U$	c #040809",
"V$	c #080C0B",
"W$	c #100C0D",
"X$	c #282425",
"Y$	c #171916",
"Z$	c #232019",
"`$	c #383339",
" %	c #110E05",
".%	c #110D0C",
"+%	c #24292D",
"@%	c #161A19",
"#%	c #03070A",
"$%	c #353942",
"%%	c #33333B",
"&%	c #06050A",
"*%	c #040903",
"=%	c #272D29",
"-%	c #22272A",
";%	c #000503",
">%	c #000700",
",%	c #76978E",
"'%	c #A4CACB",
")%	c #9DABB6",
"!%	c #000600",
"~%	c #191D20",
"{%	c #57565E",
"]%	c #3C3B36",
"^%	c #050209",
"/%	c #90A89B",
"(%	c #B7D7D2",
"_%	c #223738",
":%	c #0B0D0A",
"<%	c #484848",
"[%	c #737278",
"}%	c #515256",
"|%	c #05020B",
"1%	c #13140E",
"2%	c #2F362F",
"3%	c #0D130F",
"4%	c #454641",
"5%	c #908E99",
"6%	c #7E8188",
"7%	c #1B201A",
"8%	c #020808",
"9%	c #000904",
"0%	c #1B1D1A",
"a%	c #0E0C11",
"b%	c #000004",
"c%	c #191919",
"d%	c #727274",
"e%	c #2F3032",
"f%	c #0E0A09",
"g%	c #697068",
"h%	c #909B9F",
"i%	c #27242F",
"j%	c #1E1412",
"k%	c #100E19",
"l%	c #6C697A",
"m%	c #26242F",
"n%	c #212224",
"o%	c #2F3334",
"p%	c #161817",
"q%	c #10120D",
"r%	c #0A0B05",
"s%	c #07050A",
"t%	c #606A5F",
"u%	c #ADC1C2",
"v%	c #D0CFDF",
"w%	c #443937",
"x%	c #010005",
"y%	c #111111",
"z%	c #5C596A",
"A%	c #A09CB5",
"B%	c #0A0815",
"C%	c #151618",
"D%	c #4E5255",
"E%	c #3C4043",
"F%	c #0C0B07",
"G%	c #171611",
"H%	c #1A1F19",
"I%	c #09040B",
"J%	c #0A0D04",
"K%	c #000007",
"L%	c #545662",
"M%	c #99A08E",
"N%	c #494C39",
"O%	c #100B0F",
"P%	c #0A0C01",
"Q%	c #23251A",
"R%	c #161711",
"S%	c #2D2F2C",
"T%	c #2A2C29",
"U%	c #1E201F",
"V%	c #0A0C0B",
"W%	c #070904",
"X%	c #0A0D06",
"Y%	c #0F110E",
"Z%	c #05060A",
"`%	c #13140F",
" &	c #0D0D0B",
".&	c #252726",
"+&	c #47484A",
"@&	c #18191B",
"#&	c #040003",
"$&	c #100C09",
"%&	c #0C0D08",
"&&	c #010206",
"*&	c #080901",
"=&	c #202022",
"-&	c #2E2D32",
";&	c #121116",
">&	c #737476",
",&	c #636365",
"'&	c #4F4949",
")&	c #827A78",
"!&	c #181818",
"~&	c #2A2E2F",
"{&	c #0F0F0D",
"]&	c #343436",
"^&	c #3C3B40",
"/&	c #28292B",
"(&	c #262628",
"_&	c #060203",
":&	c #475150",
"<&	c #292E32",
"[&	c #4B4545",
"}&	c #867C7B",
"|&	c #151110",
"1&	c #1A1C17",
"2&	c #797E81",
"3&	c #9B9DAA",
"4&	c #595563",
"5&	c #1B1B19",
"6&	c #1A1A1A",
"7&	c #212123",
"8&	c #0D0709",
"9&	c #9EAAA8",
"0&	c #B2B9BF",
"a&	c #1E1A19",
"b&	c #938988",
"c&	c #1B191E",
"d&	c #090F0F",
"e&	c #4B4B57",
"f&	c #242128",
"g&	c #5A6662",
"h&	c #5B6161",
"i&	c #0E080A",
"j&	c #06050B",
"  . + .   . . . . . . . . . . @ . @   #   @ + $ # % & * = - @ + ;   $ > , > + %   % ' @ ) ! ~ , { > ] ^ /   . + + + + . + # . . ",
". + + . + # . . . . . . . . ' . #   # @ . ( ; $ ; $ - + _ : # ; < [ } | % 1 ; [ 2 3 4 < [ 5 6 7 8 9 [ 0 = a + # # # + . + + . @ ",
"+ . . . + + + + + + . . + +   @ # ' $ b c d ; % % ; $ @ # $ < ; e < | } $   f [ g h $ [ [ 4 i j k l m - n o @ @ # + + + + + #   ",
". + @ # + + # # # + + + # @ ' + # @ % p d > # @ @ @ # $ , ,   $ $ $ < $ ; @ f + q > % [ [ h r ( s t u v ' % # # + . . + + + + + ",
"+ # # +   @ # # + + . + # @ # @ # ' w [ e p < ) $ ' _ > x y # . $ ; ; $ e $ f . 1 ' ' } z A [ B C D E F . G # # + + + + + .   @ ",
"# . + @   @ + + + + + + # @ o ' + + ) H I 4 J } $ $ 1 K L M N .   $ $ $ ; $ . # ( ' O $ P Q R S T U V 0 W X @ # # # # + . . .   ",
"@ . H Y ) + + + # # # # # # Z _ o ' H '   ) ` < -  .1 ..+.@.#.* @ ' % % $ e %   ^ * $.- %.&.*.=.-.;.>.,.'.).@ # + # + . . + . !.",
"+ e ~.{.+ + + # + + . @ # + ].^.3 ' , /.(._.:.<.w O [.< @ }.# * |.1.- 2.3.4.# @ [ % # ' @ 5.6.7.8.9., 0.a.b.@ # + # # # + @ 6.c.",
"  5 d.e.f.}.@ @ + @ + # # ' g.h.i.o j.k.l.m.n.o.p.q.a.r.r.s.|.t.u.v.> w.@ x.% < | } [ [ ' ) d.y.z. .A.b B.t.# # + # @ # + @ , C.",
"D.! E.F.G.H.+ # # @ + + + # I.J.K.L.M.N.O.P.!.H * Q.1 @ @ + R.S.t.T.U.V.W.X.3  .} < < } [ [ Y.Z.`. +.+1 O ^ % # # @ @ # + # # e ",
"f ] ++@+#+$+# @ @ # # # + . %+&+, *+=+-+;+>+,+> '++ + )+Q.X d.!+~+b {+T.]+^+< $ $ $ [ < [ [ ! /+(+#._+:+<++ % $ # # @ # + + f + ",
". e $ [+}+}.@ # + . + # # . |+1+b 2+3+#.4+5+V.' Q.f ] 6+h ,+).7+>.8+9+0+S.a+$ $ ' # + @ @ ) b+c+d+|.5.1 * - % % + + + + . . + + ",
"' ; # @ # + # . . # @ + + + , e+f+g+x.( h+i+j+] O # [ - ! $ k+l+m+n+o+p+; 0+' # @ * * # # @ { q+r+s+D.t+% '+% # + + + + . + b + ",
"@ ' ' # 5.1 $ % < 4 H @ # @ ! u+v+w+].a.x+y+z+6+b A+A+'+B+a C+D+E+F+G+H+s+> [ + # * _ @ + ; = I+J+' (   K+].# @ # + + + + + t.  ",
"@ @ ) H ]+i+$ < L+| } # @ @ M+W < 4.Z N+@ O+P+Q+R+@ # b S+6.T+U+V+W+X+Y+a.1 t.; @ @ # # ; $ K+Z+`+,  @.@+@@@# # # + + + . . . f ",
"* i #@@ Q.q+$@%@r+$.&@o 3 . @ # # + + + # # *@P++ + f O r+=@-@;@>@,@[.6+O #.# @ # #   ) ) # : }.'@+ )@!@~@{@Z Z Z + # # + ; 2 % ",
"' d+]@^@/@(@@@%@b $ %@, ; _@# # + + + + + # . # + # + @ ]+4 :@; i+<@[@s.K+}@# # # # + ) ) + ; D.|@+ r.6.7+_ # # # + # # + + % e ",
"< 1@2@3@4@5@@@].x.- D.# @ 6@# + + + . + + + . . # @ # ' $ < 7@~.E p p+x.i 8@# # # @ + ' @ . N+. j+# 1 p.i+] @ # # + + + + + $ @ ",
"9@j.0@a@b@c@=@.+W ] _+# #.O + + + . . . . . # . . # ' 5.t.> q % d@i ! i 5 ! # @ @ @ + + ; e R++ ; @ ].e@' =@% % # # + + + + . ' ",
"< 6 5 f@g@h@@@5.i@j@@@Q.Q.; + + . . . . . . .     # # ^ t.> > | p a+$ 1.5 K+@ @ @ # % ; % ; b # # .   ' ; 5 ; ; + # # # # # # @ ",
"k@l@m@=@n@o@6+@ p@e+q@r@j.: + . . . . . . . . . . + # . t.b 4.! $ ] 5.s@B.t@@ @ @ % [ $ $ % : # * + $ ; e # + + # # # # # # ' + ",
"[.u@v@w@x@y@~ $+. z@A@B@C@=@+ . . . . . . . .   + . @ [ [ % ] {+; > D@Z+t.h 5.' < $ < [ [ $ % # + . + % @ + # # # # # # # # + . ",
"E@F@r+j@G@$ s@H@b I@J@K@L@@@+ . . . . . . . .   @   + < $ [ O > {+d@D.$.$ s.( T.M@< < % $ $ _ . # @ # * * R+@ @ @ @ # # # # @ # ",
"3 3 3 [ ' _ |@@ , N@O@P@# a   e + . .   + .     . . @ # ' ) $ } Q@[ R@( ' 4.D.S@t.T@U@V@_ 7++ # # # # # # @ @ # + # # + + # % _ ",
"$ [ [ @ @ # $ e 1 5., ( < W@;   +   . +   + .   . . # + @ ) i+t.R@% D.$.H % d@  X@Y@Z@`@. : + # # # # # # # # # # # # # # @ 5.R+",
"$ $ @ # # # - e # ]. #)   .#+#+   # . .   . . . . . + + @ ]+`+5.( ) @#H@' ~ ##  $#%#&#*#]@_@# # @ @ @ # # # # @ @ # + + # # q.. ",
"# + + # # @ +   '   e @ # ]+=## . . . #   + .   . . . + @ ) X $.# @ ' w $ & n+s@-#;#>#I+O D.# # # # # # # # # @ # + + # # # * ,#",
"+ + + + # $ + @ . + D..   +   . # .   # .   .   . + . + @ @ { O [.> '#e )#!#~#I+p+2 b t.# # # + # # + + # # # # # + # # # + D.{#",
"+ # # + + +   # Z _  #* # e ' # . #     +   . . . + . @ @ + )+b [ R@~ @@]#^#/#(#d - V h + p.# # @ @ + # @ # # # # # # # + . I+e ",
"+ # % % + + $ # # Z Z . # %   @     .     + . . . + + ) ) + '+5.e < F @@_#:#<#[#|@_@* 1 % 7+# # ) ) # # @ + # # # # + + + + _+@@",
"# % % % + + = * ; b 6+e * = # .   #   . .   . .   + + H H # a O ] j+@ ]+> M@$.8@%@_+' b 5 ] # # ) ]+@ # # . # + + + . + @ ]+}.+ ",
"s.)+I+- @  #@ . . D.}.f +     . + . + +   . . + . . # ) ]+' @ @ @ @ @ [ < < < 4 4 [ % ; % $ t@( ) + ( #.# 5 @ + # % e   *@) . D.",
"i@[ $.}#}.( # . + # + + + # # + .   + .   + . . . . # ' ]+) + + # % % $ < } ) ) ' + + # % ; ' Q@s+$.1 h V @ # ' ;     e # + I+# ",
"|#4.M+: 1#2#+ # 1 ^ ^ e ; ; @@}.+   . +   . . . . . + # ' ' @ @ % % % % [ ]+H ' * _ * . ; % @@D.[.3#: i w  +$ } L+4#$ e [   , @ ",
"5#6#7#8#9#6+D.@ @ ( > $ ~+e.!+f }.+ + + . + . . + + + + # ' ]+) [ % ; % @ @ # + * * # @ % @@i 0#a# .` [ b#c#d.[ J d#e#} | 4 + D.",
"$@O 7+f#i+3 O O @ @ ; j+g#h#i#$.@@# +   + # . . + + + + @ ' ]+) $ ; ; % # # $ [ ' @ + ;  .:.j#k#l#P@+  @m#n#y@s+o#p#p#< } < 5 f ",
"+ q#r#  s#3 O D.}.+ $ j+j+[.t#O . #   . # + # + + + . . % $ @ # + ; % $ $ $ $ $ % % $ $  .:.u#v#< w#x#y#z#A#<@B#s+- [ $ ;   I+1 ",
"C#D#E#F#@@d.. ' @ . + @ # # e e # +   # # + # # # # ; ; ; ; ; ; + + # @ $ $ ]+| [ e % $ e   o#G#3 H#I#J#K#L#@@M#@@5 } e + + I+^ ",
"N#O#P#Q#R#S#R@> t.# ' @ 1 1 % % ; + @ #   @ + # @ [ [ [ $ ; : % # * * # % 2 ' @ $ < $   T#U#V#t.( }.H@W#X#Y#=@Z#`#[.e . #  #}.f ",
"6@ $.$+$@$#$s@R@6+$ [ - % + O O n #.].1 a.t.%   ; < $ % % ; %   I+( ^ ( # + e $ @ + $$3 %$&$*$ #]@_ r+5 e | 6+=$-$w   + Z _ + + ",
";$t.5.>$,$'$( h z ]+]+3 $ ' [ 1 f S., '+4.p e 4 } % $ %   ;   % @ @ @ ' # @ @ # + + | )$!$~$#  # #. @ } } 4 T.1   @ < -  +[ @ # ",
") {$]$^$/$6 i : J H ' % [ ) [ R@a+K+($1.  8@e } [ e $ %   ; ; % W@b#j@O # + Z # @ @ & _$:$w . # Z + $ < } < [ < F R@[ [ Y <$# # ",
"[$E _@3 `.i 3 }$2 . ' $ < ) w < h V |$1$B+2$% % < < $ < 4 $ b % $ $.f . @ H _ # ; # e 2 }$]+% @ + ' [ % $ ' [ < |.E@i ) 3$4$. + ",
"v@5$W.6$ .4. .7$- ' @ [ $ /++ ~.g 8$9$0$a$]@$ [ L+4 e 4 $$$ 7+7+; ;   % b$b$@ 2 & e $ 3 w#@ e $ + + $ $ < # c$_ d$> ( # d.[.# + ",
"( 3 j@N+X+i+$ :$:$w + [ D.e$f$Y.W@g$h$i$O U.$ [ < [ % < } ; t.t.t.[ < $ } p % : - ; + 2 4 # e # + + % $ $ # # [ [ @ j$k$U.l$) . ",
"p+  m$n$o$] o < p$< . < @@q$r$s$t$u$S+x.v$5.} $ % $ [ $ % $ ; } e   } % $ ! ' : : + + ; < @ % + + # $ % e % - w$@@x$y$z$A${@'   ",
"e j B$C$D$  E$$ 6+t.% [ @@F$G$H$]$]+R@0+4 p+[ [ [ $ ; ; $ $ ! 5 } } ; M#I$J$* [ : + # % : % + . _ # $ $ ; $ [ 4 ; T@K$L$j `..   ",
"b M$N$O$P$Q$E@R$w#e @ f }.S$T$U$A+} |.d.$.} [ # @ $ - - $ [ V$S+{+@#_+W$X$a.< ; e ; ; ; % [ ' < % * + -  +) ' [ J s+Y$E e :.; . ",
"$ e@Z$`$ %.% +:.} %   ) r+f K++%@%w#m w#_$Q+< @ ' $ % - $ [  .6 ^.'## #%$%%%% ; ; % % % ; + o ; % %@o < $ ' %@# ; } ' ' ]+$ % . ",
"; &%1 I+^ ^ $     @ # # ' @ *%=%-%j$z )$% B+[ @ ' ' $ [ [ ' 7+;%>%p+@@,%'%)%$ % e     ; # # = + $   _ . + @ * # $ # ' o H + @ + ",
"& ' ' 2 * :   . .   + . + ) f !%~%{%]% .&%w.[ @ ' @ @ < ' @ ' ^%$ [ S./%(%_%. + ; e ; + + . ]@+ + + # # ' o # . # 5.5.' @ ' . # ",
"e e + : # e . + @   . + #   [ }.:%<%[%}%[+# < @ ' # # ' ' ' O |%# ' M$1%2%3%+ + + + +     . ; . ]@@ # # ]@* =@' @ # @ ) @ # ' + ",
"Z ) ]@+ _   +   . + # . # . '+g+j+4%5%6%7%  3 % ' ' ' ) ' ' |.8%9%0%a%N+: E@' @ .   .     + @@# Z  #* b%g+Z ] O D.$.< $ [ $ # @ ",
"+ ]@# Z ]@ #. + +   . . . + Y.d.@@c%d%e%f R@3 $ ) ) ) ) ' ' p+f%, g%h%i%j%U$# @ + + ) ' +   .   $ ' k%l%m%  ' |@n%o%p%W@$ R@# # ",
"& 6@@@; .     . . . . . . }.$@q%r+   .! o f%r% .) ' @ @ @ ) s%} 1 t%u%v%w%x%# @ . . < | ) # = y%w#  z%A%B%2   C%D%E%@%d.; q w + ",
". . . .     . . . + + + . . F%G%@@Q+^ O Q+:$H%:.R@j@6@].@ S.I%J%K%L%M%N%O%1 @ + . .     . + Z ~.}$P%Q%R%. p@% d.S%T%U%V%  I !.+ ",
". . . .         . . + + + . s+i j+# ' ]+p+[ W%| $ @ ]+# ) r+i+X%h+) Y%& t.Z%# + . . .   . + e } <.`% &% ) ' @ O d..&+&@&`.  + # ",
".                 . . . + + ,@#&$ Q@* 4 6 r+R@$ # @ # # ; p $&H %&R@&&:.*&J++ .   . . . . . @@% =&-&;&* ' [ ' O @@f.>&,&`.* # . ",
"              . . .   . + + [ ^   R@]+}.  { ~ } O I+1 $ 7+'&)&n+' !&~&H+  O + .   . . .     p#{&]&^&##Z + ; + ) ! }./&(&]@. # . ",
"            . . . .   . + # '+t.O _&1 :&<&b%B+. D.i+^ [ , [&}&|&: 1&2&3&4&  + . . . . . . . 5&w 6&7&_ #   # @ $ % % +   + % + # ",
"  . . . . . . . . . . . + # 8&3 f Y+, 9&0&b%1 @ # # . @ 7+a&b&c&f =@d&e&f&b + . . . . . . +     ;     # # . e ; $ ; + + @ ; # + ",
"  . . . . . . . . . . + + # F % f L.  g&h&]@' (   D.$.+ ^ + i&j&x%$ A+. , j++ . . . . . . + @ # # $ ; . @ . @ ; % % ' # @   . + ",
"    . . . . . . . . . . + + -# #j+> d$9%=@4 $.1 1 D.}., ( f #.@@: > ]@@ R@}.+ . . . . . . .   #   Z  #@   @ . # + + # * + @ + + ",
". + . . + . . . + + + + + + e # ; % H H 6+V ' #   # + + + + # + + . . . .   . . . . . . . + . + + + + . + # + # # + . + # + + + "};
