/* XPM */
static char *kunai[] = {
/* columns rows colors chars-per-pixel */
"32 32 60 1 ",
"  c #2B2B2B",
". c #404040",
"X c #424242",
"o c #434343",
"O c #4C4C4C",
"+ c #4E4E4E",
"@ c #515151",
"# c #535353",
"$ c #595959",
"% c #5A5A5A",
"& c #5B5B5B",
"* c #5F5F5F",
"= c #616161",
"- c #636363",
"; c #656565",
": c #686868",
"> c #696969",
", c #6A6A6A",
"< c #6C6C6C",
"1 c #6E6E6E",
"2 c #707070",
"3 c #727272",
"4 c #757575",
"5 c #767676",
"6 c #797979",
"7 c #7B7B7B",
"8 c #7C7C7C",
"9 c #7E7E7E",
"0 c #878787",
"q c #888888",
"w c #8B8B8B",
"e c #8C8C8C",
"r c #8E8E8E",
"t c #8F8F8F",
"y c #939393",
"u c #949494",
"i c #959595",
"p c #979797",
"a c #9A9A9A",
"s c #9F9F9F",
"d c #A4A4A4",
"f c #A5A5A5",
"g c #A9A9A9",
"h c #ABABAB",
"j c #ADADAD",
"k c #AEAEAE",
"l c #B3B3B3",
"z c #B6B6B6",
"x c #BBBBBB",
"c c #BDBDBD",
"v c #BEBEBE",
"b c #BFBFBF",
"n c #C0C0C0",
"m c #C5C5C5",
"M c #D1D1D1",
"N c #D2D2D2",
"B c #D3D3D3",
"V c #D4D4D4",
"C c #D5D5D5",
"Z c #D6D6D6",
/* pixels */
"CCCBCCBCBCCCBCCCCBCCCBCBCCBCCCBC",
"CBCBBCBCBCBCBBBBCBCBCBCBCBBCBCBC",
"BCBCBCBCBCBCBCBBCBCBCBCBCCBBBCBC",
"CBBBBBBCBCBCBCBBCBCBCBCBBBBCBCBC",
"BBBBBBBCBCBCBBBBBBCBCBBBCBBCBBBC",
"CCCCCCBCCCBCBCCBCBCBCBCCCCBCBCCC",
"CBBBBBBCBBBCBBBBBBCBBBBBCBBBBCBB",
"CCCBCCCCCCBCCCCBCCCCCCCCCCCCBCCC",
"BBBBBBBCBBBCBBBBCbzxBBBBBBBCBBBB",
"CCCCCCBCBCBCBCCCj;&;dCCCCCBCBCCC",
"BBBBBBBCBCBCBBBCt5 h9BBBBBBCBCBC",
"CBCCCCBCBCBCBCCB7nsm7BCBCCBCBCBC",
"CBBBBCBCBCBCd.##nt*5BBCBCBBBBBBC",
"CBCBBBBBBBBC10ubwtBBCBBBBCBCBCBC",
"CCBCCCBCBCBj,u3a9dCBCBCBCBBCBCBC",
"BBBBBCBCBCB,yy&&&hBBCBBBCBBCBBBC",
"CCCBCCCCCCj=t=& ,xCCCCCBCCBCBCBC",
"BBBBBBBCBC,w=+3lCBBBBBBBCBBCBBBB",
"CCCCCCBCBC..7lCBCBCCCCCBCBCCBCCC",
"BBBBBBBCBCbbBCBBCBCBBBCBCBBBBCBC",
"CCCBCCCCBCCCBCCBCBCCCBCCCBBCBCCC",
"BBCBBBBBBBBCBCBBBBCBCBBBCCBBBCBB",
"CBCBBCBCBCBCBCBCCBCBCBCBCBBCBCCB",
"BCBBBCBBBCBBBCBBCBBBBBCBCBBCBCBC",
"CBBBBCBCBCBCBBBBCBCBCBCBCBBCBCBC",
"CCCCCCBCBCCCBCBCCBCBCBCBCCBCBCBC",
"BBBBBBBCBBBCBBBBCBCBBBBBBBBCBCBB",
"CCCCCCCCCCCCCCCBCBCCCBCBCCBCBCCC",
"BBBBBBBCBBBBBBBBCBBBCBBBBBBBBCBB",
"CCCCBCCCCCBCBCBCCBCCCCCCCBBCBCCC",
"BBBBBCBBBCBCBCBBCBCBBBCBCBBCBBBC",
"CCCCBCCCBCCCBCBCCBCBCCCBCCCCBCCC"
};
