/* XPM */
static char *kyubi[] = {
/* columns rows colors chars-per-pixel */
"32 31 65 1 ",
"  c #2E2A27",
". c #2C2B2B",
"X c #332A27",
"o c #382B26",
"O c #332C2A",
"+ c #3A2E2A",
"@ c #37302A",
"# c #3D312A",
"$ c #2E2F31",
"% c #302F31",
"& c #2F3032",
"* c #313235",
"= c #393232",
"- c #34363B",
"; c #3A373B",
": c #36393D",
"> c #3A3A3D",
", c #433D3D",
"< c #373C41",
"1 c #393D43",
"2 c #3C4247",
"3 c #3D424B",
"4 c #40474F",
"5 c #444951",
"6 c #842A25",
"7 c #8B2925",
"8 c #922721",
"9 c #932923",
"0 c #952E28",
"q c #CD0F1D",
"w c #CB111D",
"e c #CB1623",
"r c #D11524",
"t c #AD592D",
"y c #B45D2D",
"u c #BC5E2E",
"i c #B55D30",
"p c #BC5E30",
"a c #BF602E",
"s c #BE6131",
"d c #C35E2D",
"f c #CA5F2D",
"g c #C45F30",
"h c #C5622D",
"j c #CB632D",
"k c #D0632A",
"l c #C46231",
"z c #CA6331",
"x c #8CA6CA",
"c c #8DA9CC",
"v c #91AACF",
"b c #8FAED3",
"n c #91AFD4",
"m c #8FB0D5",
"M c #93B1D6",
"N c #9CB5D6",
"B c #9FB8D7",
"V c #93B1D8",
"C c #9BB6D8",
"Z c #9FB8D8",
"A c #A3B9D7",
"S c #A8BBD6",
"D c #A4BBD8",
"F c #CECECE",
"G c #D6D1D3",
/* pixels */
"SNZZNCZNACNAZCZZNZNNCZNNNNNNANNA",
"ZMmVVMMMnVnVVbnVnnnnMVb113nMMMMC",
"NMMMVMVmVVMVVnVVnMnnm<>yy&nMVMmV",
"ZMM5:<xMCMMMn1nVnMMn>uizz&MMVMVC",
"ZVV>tu,::cMV1i>nnnn>ijjh#$nVVnVC",
"CVm<ujuua>cV$07>nn:uzkzO.$mVVMVC",
"ZVV<@pkjzh;-$OO.--djzj+...:VVMVV",
"NmVc>Ohjjjdgdpgdpujjj+....&VMMMM",
"ZMVV:.OlzzzzkzzzzjzzO.....$VVVVC",
"ZVMV:..OOhkzjzkkjjjO....O6$VVVVV",
"NnnV<....O@ljzzzzz ......7.&&-nV",
"NVMnb-.....OjzzkzO.......+lhs&VN",
"AVVV1p+O....OOlkjOqwG..sOjjj7*VC",
"Nbnn<p0X...Fewohl.wwGXhXOzlf7*MM",
"Nbnn:68O...FeqXhh.OX.hjdOjzf7*MM",
"Z1.$..7Os@..OOlo..jhjjjj.jjj7&VN",
"N1yjjz#.sjzzjljzXljlljzlXf87*nVC",
"N<yhjjz+ajjzjzholXjfffh.987$nnnn",
"NM1ujjkj#uhjjjjkjjjjjjX.OO.O$.*V",
"NM>ujjzjj+OsjhzkhljhlOzljjlj7*VC",
"NM<6dfzjzjz+OXhjlOO.Xzzzjzzf7-Vn",
"Nm>68ffkjjO799jjj899.fffjjf7%nVV",
"ZV1689fjzz@7jzjjjjj7X9779777-MVC",
"ZM26999h07+sjzjjzjz.O7%OOOO&MMbN",
"CMM>67778Od+hjhhujjXhOfjkkg=nnVC",
"CMx4@@#oO.lOhz#.+jj.zX8hfzgd=xnV",
"NV1tduhh0Op@zzzOhzjOl.7897776*VC",
"NV3::-676>6OfjjXjjj.7-767:--:1VV",
"DMMVMV3:-c2:yssOypp::M:-<VnVVMVC",
"NVMMMVVMMVVM1:::::<bMMMbVMmVVVnC",
"DCMNCCVCCCCCVNNCMNCMNVNMCNMCCNCZ"
};
