/* XPM */
static char *narutother[] = {
/* columns rows colors chars-per-pixel */
"17 32 196 2 ",
"   c #010001",
".  c #0B0808",
"X  c #150D14",
"o  c #220E04",
"O  c #2F1404",
"+  c #381705",
"@  c #321514",
"#  c #392315",
"$  c #2C240C",
"%  c #070428",
"&  c #1D1C23",
"*  c #030136",
"=  c #371728",
"-  c #2B282A",
";  c #362F2B",
":  c #38322B",
">  c #2A2A3C",
",  c #3F2F3D",
"<  c #333333",
"1  c #3B3B3C",
"2  c #393637",
"3  c #451D06",
"4  c #471A16",
"5  c #470C05",
"6  c #5F2707",
"7  c #562408",
"8  c #5E2F0E",
"9  c #4E2114",
"0  c #5B2D10",
"q  c #5B3619",
"w  c #612C0B",
"e  c #672B07",
"r  c #76320A",
"t  c #682810",
"y  c #623B1A",
"u  c #723914",
"i  c #7F3A10",
"p  c #5F3F23",
"a  c #433D3B",
"s  c #492E36",
"d  c #603A3B",
"f  c #5E5C0C",
"g  c #524317",
"h  c #444406",
"j  c #7A4219",
"k  c #6C571C",
"l  c #6E4719",
"z  c #7A631F",
"x  c #474239",
"c  c #554538",
"v  c #714320",
"b  c #664631",
"n  c #665830",
"m  c #775332",
"M  c #6F542D",
"N  c #02014B",
"B  c #171744",
"V  c #0E0D5B",
"C  c #1F1D5B",
"Z  c #363644",
"A  c #222156",
"S  c #2A294B",
"D  c #02016B",
"F  c #0B0A6F",
"G  c #191668",
"H  c #020172",
"J  c #211B62",
"K  c #46314B",
"L  c #483159",
"P  c #424242",
"I  c #4A4A4A",
"U  c #4F4842",
"Y  c #594E43",
"T  c #474759",
"R  c #585858",
"E  c #58544D",
"W  c #624F40",
"Q  c #605855",
"!  c #6E6345",
"~  c #656057",
"^  c #716851",
"/  c #786A5C",
"(  c #4F4F68",
")  c #49487B",
"_  c #616161",
"`  c #686665",
"'  c #6D6D6C",
"]  c #747474",
"[  c #797979",
"{  c #787574",
"}  c #7D7768",
"|  c #6A4C6E",
" . c #833B0E",
".. c #8E3B0A",
"X. c #923D0A",
"o. c #9C4009",
"O. c #884818",
"+. c #A5450A",
"@. c #AD4A0F",
"#. c #B9500F",
"$. c #A8581D",
"%. c #B25617",
"&. c #B7621B",
"*. c #855A3B",
"=. c #9B5A27",
"-. c #AA593B",
";. c #AA7F2D",
":. c #A0643B",
">. c #C2550F",
",. c #DF5D0C",
"<. c #CC5E14",
"1. c #D75F12",
"2. c #E25C0A",
"3. c #C5631C",
"4. c #D76516",
"5. c #D8721C",
"6. c #E0600E",
"7. c #E0711F",
"8. c #D86D20",
"9. c #C87A2D",
"0. c #D77222",
"q. c #D67A27",
"w. c #E07823",
"e. c #866E4D",
"r. c #A47C53",
"t. c #AA7D57",
"y. c #B17453",
"u. c #847F75",
"i. c #9B891D",
"p. c #B1AC13",
"a. c #B9B813",
"s. c #BFAA21",
"d. c #B58E2F",
"f. c #D78C2D",
"g. c #D9862D",
"h. c #DC922E",
"j. c #DE8B33",
"k. c #D79233",
"l. c #DC9134",
"z. c #CC9735",
"x. c #E38B2D",
"c. c #E0912D",
"v. c #CDBB23",
"b. c #D5BB2B",
"n. c #D7AB39",
"m. c #D8AB38",
"M. c #D7A438",
"N. c #E4A937",
"B. c #E0B439",
"V. c #D8CD1D",
"C. c #D8D716",
"Z. c #D8D813",
"A. c #D8D219",
"S. c #E1DE14",
"D. c #E1D41E",
"F. c #E1E014",
"G. c #D8C524",
"H. c #E1CE23",
"J. c #E0D220",
"K. c #E9C632",
"L. c #B5865D",
"P. c #AC8F6F",
"I. c #BE9961",
"U. c #A98E75",
"Y. c #C38A61",
"T. c #C59265",
"R. c #D5A376",
"E. c #020189",
"W. c #070785",
"Q. c #121192",
"!. c #0D0C9B",
"~. c #35299A",
"^. c #1A19AA",
"/. c #595892",
"(. c #767682",
"). c #2424C7",
"_. c #4C44C5",
"`. c #858585",
"'. c #8C8A89",
"]. c #939393",
"[. c #9C9C9C",
"{. c #A09F9D",
"}. c #A4A4A4",
"|. c #AAAAAA",
" X c #B4B4B4",
".X c #B9B9B9",
"XX c #D8AE80",
"oX c #CDA584",
"OX c #E4B885",
"+X c #D7C29B",
"@X c #C3C3C3",
"#X c #CDCDCD",
"$X c #D7D7D7",
"%X c #D9D9D9",
"&X c #E1E1E1",
"*X c #E9E9E9",
/* pixels */
"$X$X$X%X&X$X$X$X&X$X$X$X&X$X$X$X$X",
"$X$X$X%X&X@X@X$X~ #X'.[.&X$X$X$X$X",
"$X$X$X%X&X`.E U.g '.n '.@X$X$X$X$X",
"&X&X&X&X*X].i.p.z i.p.P h $X&X&X&X",
"$X$X%X].& f a.Z.J.C.A.V.k [ '.$X%X",
"$X$X$X%X^ v.Z.Z.F.C.C.C.b.n |.$X$X",
"%X$X$X%X~ v.C.Z.S.C.C.G.H.Q $X$X$X",
"&X&X&X&Xk k v.Z.K.F.H.G.W ! #X&X&X",
"$X$X$X%X_ B G < P < < A V $X$X$X$X",
"$X$X%X$X`., J _ [ ] ' C K ' $X$X$X",
"%X%X%X%X[ t.c /.: ; ) U Y.' $X$X$X",
"&X&X&X&X.XX t.U.OXOXU.R.  R #X&X&X",
"%X$X%X%XT - Y L.OXR.T.x 1 O.W $X$X",
"$X$X#X( W.B ' Q q b c ' > @.=.[.$X",
"$X%X` % ).Q.S { q.k.:.Z H 9 t d $X",
"&X X*.-.F ).Q.N u %.X D E.= 5 4 &X",
"$Xu.d.g.+.% N D t 0.@ N %  .+.R $X",
"U.l M.g.e 3 #.l X.q.i #.o o. .u .X",
"(.$.M.g.3 o $.k.6.9.O.%.o r %.u ] ",
"}.M q w   o O e e + +   3 # *.y.] ",
"[ I.+Xr.  9.3.q y w j 0.x.# b - [.",
"#X/ e.G o 3.f.m.j.0.M.n.N.z.b |.$X",
"$X@X> D r 4.1.5.j.0.f.M.N.n.;.`.$X",
"&X&XT * c.N.w.2.+.6 >.w.N.B.j.0 &X",
"$X$X XO.f.n.k.o.< #X` 7 0.q.8.p $X",
"$X$X@Xm h.f.<.b $X$X|.7 6.4. .a $X",
"$X$X@X& j &.0 '.&X$X#X< 4 4 - .X$X",
"&X&X(.Q.D * ] &X*X&X%XR E.!.~./ &X",
"$X].L _.^.Z }.$X@XI `.].& G | T.] ",
"$X|.e.R.s 2 P R I Z 1 1 P - : ~ #X",
"$X$X{.c & P Z P P I E R R ]  X$X$X",
"$X$X$X X[.].].].[.|.$X$X&X#X#X#X#X"
};
