/* XPM */
static char *naruto[] = {
/* columns rows colors chars-per-pixel */
"17 32 193 2 ",
"   c #040305",
".  c #0C0708",
"X  c #120C0C",
"o  c #1A0D07",
"O  c #10110C",
"+  c #040315",
"@  c #170B18",
"#  c #141311",
"$  c #161718",
"%  c #25110B",
"&  c #2F150B",
"*  c #37190C",
"=  c #3D1A0B",
"-  c #211E13",
";  c #380E10",
":  c #2C2613",
">  c #33241E",
",  c #332C1B",
"<  c #3E3617",
"1  c #060427",
"2  c #100A2D",
"3  c #171829",
"4  c #090634",
"5  c #371A30",
"6  c #292A2D",
"7  c #2D2420",
"8  c #382B22",
"9  c #35332D",
"0  c #363635",
"q  c #393431",
"w  c #3D343B",
"e  c #3D3D3E",
"r  c #383934",
"t  c #2B2A3C",
"y  c #451E0D",
"u  c #48100B",
"i  c #441E1C",
"p  c #460608",
"a  c #4C220C",
"s  c #5E290D",
"d  c #5B260E",
"f  c #5D300F",
"g  c #472818",
"h  c #5A2A13",
"j  c #413A1B",
"k  c #5E3B1A",
"l  c #5E3114",
"z  c #612A0E",
"x  c #6A2D13",
"c  c #6A3916",
"v  c #7E3B14",
"b  c #743614",
"n  c #5A3F21",
"m  c #48303A",
"M  c #603F24",
"N  c #494219",
"B  c #55471D",
"V  c #5F5D15",
"C  c #6B441A",
"Z  c #77441B",
"A  c #62541C",
"S  c #4C422A",
"D  c #55483C",
"F  c #604126",
"G  c #724924",
"H  c #6A5921",
"J  c #664633",
"K  c #625236",
"L  c #7D563D",
"P  c #796323",
"I  c #04034C",
"U  c #0C0E41",
"Y  c #1E1E40",
"T  c #0F0F59",
"R  c #2B2B4E",
"E  c #373746",
"W  c #232259",
"Q  c #03036C",
"!  c #050366",
"~  c #100B6E",
"^  c #181663",
"/  c #020271",
"(  c #221F66",
")  c #423947",
"_  c #483357",
"`  c #424242",
"'  c #4C4A47",
"]  c #575147",
"[  c #4D4D57",
"{  c #575858",
"}  c #625040",
"|  c #625955",
" . c #484978",
".. c #694D72",
"X. c #6D6D6D",
"o. c #6D6667",
"O. c #747474",
"+. c #797775",
"@. c #8C3D12",
"#. c #833C14",
"$. c #99420F",
"%. c #85491D",
"&. c #9E4517",
"*. c #A14513",
"=. c #A84915",
"-. c #B74F13",
";. c #AA5619",
":. c #B45419",
">. c #AA611E",
",. c #B9631E",
"<. c #995822",
"1. c #A1583E",
"2. c #9B653B",
"3. c #D45D14",
"4. c #D95A10",
"5. c #C55C16",
"6. c #CA681C",
"7. c #D26619",
"8. c #CF701E",
"9. c #D4711E",
"0. c #D16E24",
"q. c #C57829",
"w. c #D27224",
"e. c #D37B24",
"r. c #DA7321",
"t. c #866E4D",
"y. c #836E51",
"u. c #9C7D55",
"i. c #A37D58",
"p. c #AA7455",
"a. c #B1AF1B",
"s. c #968726",
"d. c #A78028",
"f. c #B48F31",
"g. c #B9A828",
"h. c #CE8C29",
"j. c #D3892A",
"k. c #D38827",
"l. c #D4932C",
"z. c #D89127",
"x. c #DA8A31",
"c. c #D78932",
"v. c #D99734",
"b. c #C5972A",
"n. c #D3AE2F",
"m. c #C9B828",
"M. c #CFA431",
"N. c #D2A531",
"B. c #D4AB31",
"V. c #CCB531",
"C. c #D5B533",
"Z. c #D3CE1B",
"A. c #D5D316",
"S. c #D3D31B",
"D. c #DAD71D",
"F. c #D4C926",
"G. c #DADA20",
"H. c #DBD124",
"J. c #DFC339",
"K. c #BA995E",
"L. c #B4895C",
"P. c #A58E6C",
"I. c #BC8B62",
"U. c #BF9665",
"Y. c #A48D72",
"T. c #C19361",
"R. c #CCA276",
"E. c #D3AF7A",
"W. c #D7B27E",
"Q. c #040483",
"!. c #090984",
"~. c #12118D",
"^. c #0D0D97",
"/. c #18189E",
"(. c #332A93",
"). c #1B19AE",
"_. c #2223BE",
"`. c #57598C",
"'. c #4844BF",
"]. c #878787",
"[. c #918F8F",
"{. c #9C9B9B",
"}. c #BDBDBD",
"|. c #A5A5A4",
" X c #C8A480",
".X c #DEB881",
"XX c #E1BA87",
"oX c #D1C197",
"OX c #C9C9C9",
"+X c #D3D3D3",
"@X c #DADADA",
"#X c #E2E2E2",
"$X c None",
/* pixels */
"$X$X$X$X$X$X$X$X$X$X$X$X$X$X$X$X$X",
"$X$X$X$X$X$X$X$X$X$X$X$X$X$X$X$X$X",
"$X$X$X$X$X$X- , n $XV $X$X$X$X$X$X",
"$X$X$X$X$X$Xs.g.P s.a.O N $X$X$X$X",
"$X$X$X$X: V a.A.F.A.Z.F.H $X$X$X$X",
"$X$X$X$XS m.A.D.G.S.S.S.V.B $X$X$X",
"$X$X$X$X< m.A.S.G.S.S.F.H.: $X$X$X",
"$X$X$X$XH H g.D.J.G.F.V.} n $X$X$X",
"$X$X$X$X# U ( q ' 0 0 W T $X$X$X$X",
"$X$X$X$X$Xw ( { +.+.X.W _ # $X$X$X",
"$X$X$X$X$Xi.D `.q 9  .' I.# $X$X$X",
"$X$X$X$X$X  L.P.XXW.P.R.  . $X$X$X",
"$X$X$X$X1 6 ] L.W.E.T.D e %.g $X$X",
"$X$X$X2 !.Y X.| F F D X.t =.<.$X$X",
"$X$X$ 2 _.).R O.q.h.2.E Q g x ; $X",
"$X$XG 1.~ _.!.I b ;.# Q Q.5 u p $X",
"$X< f.c.*.1 I Q x w.; I 1 @.*.# $X",
"$XC M.j.z y -.G %.w.v :.% @.#.c $X",
"$X>.M.e.y o <.l.4.q.%.:.% b ;.b $X",
"$XJ c z   & * s d y * . y > L p.$X",
"$XU.oXL.  q.,.k c f Z 0.x.g J 7 $X",
"$XK L ^ o 6.h.N.c.8.M.M.B.b.k $X$X",
"$X$X+ Q b 7.3.9.c.9.h.B.C.C.d.$X$X",
"$X$X1 4 j.n.9.4.&.s :.w.v.C.j.a $X",
"$X$X$XZ z.C.l.$.q OXo.d r.e.9.a $X",
"$X$X$XG l.j.5.J OX+X|.h 3.3.#.X $X",
"$X$X$X+ Z :.h [.@X+XOXr i > @ $X$X",
"$X$X3 ~./ 4 O.@X#X@X+X[ Q.^.(.g $X",
"$X$X_ '.).E {.@X}.` ].[.3 T ..U.$X",
"$X$Xt. Xm 0 ` [ [ e e e ` 6 > 8 $X",
"$X$X{.S $ ` ` ` ' e ` ` ` ` $X$X$X",
"$X$X$X$X$X$X$X$X$X$X$X$X$X$X$X$X$X"
};
