/* XPM */
static char *sharingan[] = {
/* columns rows colors chars-per-pixel */
"32 32 60 1 ",
"  c #010101",
". c #0A0202",
"X c #0A0A0A",
"o c #130304",
"O c #1B0405",
"+ c #151515",
"@ c #230505",
"# c #2A0405",
"$ c #330707",
"% c #3B0606",
"& c #3F0508",
"* c #242424",
"= c #2C2C2C",
"- c #353535",
"; c #3A3A3A",
": c #430506",
"> c #4B0606",
", c #4F0807",
"< c #470708",
"1 c #4E0708",
"2 c #550606",
"3 c #580606",
"4 c #5B0708",
"5 c #630506",
"6 c #6B0506",
"7 c #650608",
"8 c #760506",
"9 c #7B0505",
"0 c #7F0709",
"q c #7F0808",
"w c #444444",
"e c #525252",
"r c #5E5E5E",
"t c #666666",
"y c #6C6C6C",
"u c #7C7C7C",
"i c #810404",
"p c #8D0505",
"a c #82090A",
"s c #8F090A",
"d c #930404",
"f c #9C0505",
"g c #970807",
"h c #950709",
"j c #950808",
"k c #A50404",
"l c #AC0404",
"z c #B50101",
"x c #808080",
"c c #8F8F8F",
"v c #919191",
"b c #A8A8A8",
"n c #BDBDBD",
"m c #C6C6C6",
"M c #CFCFCF",
"N c #D0D0D0",
"B c #DADADA",
"V c #EBEBEB",
"C c #F4F4F4",
"Z c #FFFFFF",
/* pixels */
"ZZZZZZZZZZZZNnnnnnnNZZZZZZZZZZZZ",
"ZZZZZZZZZVvv=      =vvVZZZZZZZZZ",
"ZZZZZZZZue     $$     euZZZZZZZZ",
"ZZZZZZZuX     @ff@     XuZZZZZZZ",
"ZZZZZCu.     @lzzk@     .uCZZZZZ",
"ZZZZCu      #kzzzzk#      uCZZZZ",
"ZZZZu       izzzzzzi       uZZZZ",
"ZZZx       &kzzzzzzk:      .xZZZ",
"ZZZ-  ..98.O##<ll<##O.89.   ;ZZZ",
"ZZt $lllzd%lga.##.adl%dzlll$ tZZ",
"ZBw lzzzzd%d@ 4zz4 #d:dzzzzl wBZ",
"Zv  lzzzz,@#<5zzzz5:#@1lzzzz. vZ",
"Zv  <zzzk.#9kzzzzzzk9#.lzzz<  cZ",
"m+  Olzl%@lzzzzlzzzzzk@%lzlO  +m",
"n    %k1s#zzzzl43lzzzz#s,k%    n",
"n    @4pk#zzzz4  2zzzz#lp4@    n",
"n    @4dl#zzzl    lzzz#ld4O    n",
"n    %f,h#zzzz7  5zzzz#d,f%    n",
"Cx  okzl%Okzzzl76lzzll@%kzkO  xC",
"Zv  %zzzlX >lzzzzzzk, Xkzzz&  vZ",
"Zv  kzzzl:O@,8zzzz8>@O%zzzzl  vZ",
"ZN; lzzzzd:p7o<88<o6p:dzzzzl.;MZ",
"ZZt ##6zzd:lz0.oo azz%dzz6## tZZ",
"ZZC-  .o...O@@$kk%@@O..o..  -CZZ",
"ZZZy.      <kzzzzzzk<       yZZZ",
"ZZZZy       <lzzzzl<       tZZZZ",
"ZZZZCy       <zzzz<       yCZZZZ",
"ZZZZZVt       <zz:       tCZZZZZ",
"ZZZZZZZt*      <:      *tZZZZZZZ",
"ZZZZZZZZZe-          -eZZZZZZZZZ",
"ZZZZZZZZZZMuuur  ruuuMZZZZZZZZZZ",
"ZZZZZZZZZZZZZZVbbVZZZZZZZZZZZZZZ"
};
