/* XPM */
static char *tsukuyomi[] = {
/* columns rows colors chars-per-pixel */
"32 31 71 1 ",
"  c #050101",
". c #0C0202",
"X c #130203",
"o c #1C0203",
"O c #250203",
"+ c #330304",
"@ c #3B0304",
"# c #440304",
"$ c #4C0304",
"% c #540304",
"& c #5E0305",
"* c #610305",
"= c #6C0304",
"- c #750304",
"; c #7D0405",
": c #7C4749",
"> c #7C4B4D",
", c #794F51",
"< c #795053",
"1 c #765659",
"2 c #735B5E",
"3 c #725F62",
"4 c #6D6669",
"5 c #706163",
"6 c #6A6D71",
"7 c #677377",
"8 c #65777B",
"9 c #830304",
"0 c #8B0305",
"q c #940204",
"w c #9C0203",
"e c #950B0C",
"r c #9D0C0D",
"t c #971617",
"y c #9A1212",
"u c #971718",
"i c #941C1D",
"p c #A40102",
"a c #AB0101",
"s c #A00808",
"d c #B30101",
"f c #BC0001",
"g c #8F2627",
"h c #8E2728",
"j c #8B2B2C",
"k c #912121",
"l c #893133",
"z c #863739",
"x c #843B3C",
"c c #C00101",
"v c #814042",
"b c #627C80",
"n c #5F8286",
"m c #5E868A",
"M c #599195",
"N c #569498",
"B c #4DA6AA",
"V c #4CABB0",
"C c #49B1B6",
"Z c #46B5BA",
"A c #44BABF",
"S c #43BDC3",
"D c #3FC3C8",
"F c #3DC8CE",
"G c #3BCDD3",
"H c #3AD1D7",
"J c #37D6DC",
"K c #38D4DA",
"L c #36D9DF",
"P c #41C1C7",
"I c #40C4CA",
/* pixels */
"LLLLLLLLLLFn,gspwwh<mGLLLLLLLLLL",
"LLLLLLLLV>raaaa&*aaaps<ZLLLLLLLL",
"LLLLLLG1saadaw9 X0wddaap3HLLLLLL",
"LLLLLZkpadq00af+@fp00waaagSLLLLL",
"LLLJVyaap9pfffddddfffp9paatZLLLL",
"LLLSyadqwcfdaappppaadfcqqaauPLLL",
"LLHhad0pfdapw;99999wpadfpqaalHLL",
"LL4paqpfdaw;0dffffd0;wadfwwap7LL",
"LSsaaqfdaq9fcffa;dfff9qpdc0aayIL",
"L5pd9fqp00ffddaO%adfff90qff9dp7L",
"Kyaawf-+Xwfdd0;  90adfq.o-fqaaiL",
"Baa9fdwo qda;pf00fp9ad0 @adf0dpC",
"7pa0fdp9afd9dfdaadfd9dfa;pdf0aan",
",ad0faqwfdsqfawqqpdf0pdfqwaf0da3",
"xaaqfp9dfd9dfp;oo9pfd9dfa9afqaa:",
"laawfa;dfd9fdp$  %pdf9dfd;afqaav",
"xaaqfa9dfd9afp9OO9pfa0dfp0afqda>",
"<ad0faqqfd= -apqqpd=.*dfqwaf0da3",
"7pd0fdp9f9O =fddadf* Off9pdf0dpn",
"Bpa0fdp;dcpw9pcfffp9p;fa9pdf0apA",
"Juap;pap;ffdaq9009qadff;pap;aagJ",
"L4qw Odaq0fffdaaadddff9qadX 9a8L",
"LIe$X#fdpq;dfffdffffd9qpdf@+%yGL",
"LL6paqpfdas;0af#$fa09wadfwwa9bLL",
"LLKjaaqwfdaaw9;  ;9wpadfwqdazJLL",
"LLLSuaawqffdaap-#padffc0wdaiDLLL",
"LLLLCtaaa9pffffqdffffw9aaaiSLLLL",
"LLLLLShpaaw00wdffdw09pdaplPLLLLL",
"LLLLLLH4saaddpq00qpdaaar6KLLLLLL",
"LLLLLLLLA1rppaaaaaaapr2SLLLLLLLL",
"LLLLLLLLLLGM1lyrryl2NGLLLLLLLLLL"
};
