/* XPM */
static char *wall3[] = {
/* columns rows colors chars-per-pixel */
"32 32 8 1 ",
"  c black",
". c #3E2E39",
"X c #353E50",
"o c #574251",
"O c #434F65",
"+ c #5A6988",
"@ c #627293",
"# c #6F7F9F",
/* pixels */
"OOXXXXXXXXXXXXXXOOXXXXXXXXXXXXXX",
"OOXXXXXXXXXXXXXXOOXXXXXXXXXXXXXX",
"OO##############OO##############",
"OO##############OO##############",
"OO##++++++++++##OO##++++++++++##",
"OO##++++++++++##OO##++++++++++##",
"XXXXOOOOXXXXXXXXXXXXXXXXOOOOXXXX",
"XXXXOOOOXXXXXXXXXXXXXXXXOOOOXXXX",
"####OOXX####@@@@@@@@####XXOO####",
"####OOXX####@@@@@@@@####XXOO####",
"++##XX##@@@@@@@@@@@@@@@@##XX##++",
"++##XX##@@@@@@@@@@@@@@@@##XX##++",
"++####@@@@..  ..  ..  @@@@####++",
"++####@@@@..  ..  ..  @@@@####++",
"OOOO##@@  ..  ..  oo  ..@@##OOOO",
"OOOO##@@  ..  ..  oo  ..@@##OOOO",
"OOOO@@@@  ..  oo  oo  oo@@@@OOOO",
"OOOO@@@@  ..  oo  oo  oo@@@@OOOO",
"OOOO@@@@  oo  oo  oo  oo@@@@OOOO",
"OOOO@@@@  oo  oo  oo  oo@@@@OOOO",
"OOOO@@@@  ..  ..  ..  oo@@@@OOOO",
"OOOO@@@@  ..  ..  ..  oo@@@@OOOO",
"XXXX@@@@  oo  oo  ..  oo@@@@XXXX",
"XXXX@@@@  oo  oo  ..  oo@@@@XXXX",
"####@@@@  oo  ..  oo  ..@@@@####",
"####@@@@  oo  ..  oo  ..@@@@####",
"++##@@@@@@@@@@@@@@@@@@@@@@@@##++",
"++##@@@@@@@@@@@@@@@@@@@@@@@@##++",
"++##@@@@@@@@@@@@@@@@@@@@@@@@##++",
"++##@@@@@@@@@@@@@@@@@@@@@@@@##++",
"OOOOOOOOOOOOOOOOOOOOOOOOOOOOOOOO",
"OOOOOOOOOOOOOOOOOOOOOOOOOOOOOOOO"
};
