/* XPM */
static char *walls[] = {
/* columns rows colors chars-per-pixel */
"32 32 87 1 ",
"  c #2C3242",
". c #2C3344",
"X c #2F3545",
"o c #2E3547",
"O c #31384A",
"+ c #31384B",
"@ c #333B4F",
"# c #343B4C",
"$ c #343B4F",
"% c #353C4F",
"& c #333B50",
"* c #343B50",
"= c #363E53",
"- c #363E56",
"; c #373F56",
": c #394154",
"> c #384056",
", c #3B4358",
"< c #3A4359",
"1 c #39415A",
"2 c #3B435A",
"3 c #3B4459",
"4 c #3A435C",
"5 c #3B445C",
"6 c #3C455E",
"7 c #3E4761",
"8 c #3F4862",
"9 c #3F4963",
"0 c #434B60",
"q c #424A61",
"w c #424B61",
"e c #424B63",
"r c #404A64",
"t c #424C66",
"y c #444D64",
"u c #454E65",
"i c #434E69",
"p c #444E69",
"a c #46506B",
"s c #46506C",
"d c #47516D",
"f c #47526E",
"g c #4B5468",
"h c #4E576A",
"j c #49536C",
"k c #49536D",
"l c #4B556F",
"z c #495471",
"x c #4A5572",
"c c #4B5672",
"v c #4B5673",
"b c #4D5770",
"n c #4D5872",
"m c #4D5875",
"M c #4D5876",
"N c #4D5976",
"B c #4F5A77",
"V c #4F5B79",
"C c #505A72",
"Z c #525C73",
"A c #505A74",
"S c #525C75",
"D c #525D7C",
"F c #56617F",
"G c #58637E",
"H c #566382",
"J c #576383",
"K c #596585",
"L c #596684",
"P c #5D6882",
"I c #5C6889",
"U c #5E6B8A",
"Y c #606B85",
"T c #616D8C",
"R c #616E8D",
"E c #636F8C",
"W c #627092",
"Q c #637092",
"! c #657295",
"~ c #687492",
"^ c #6B7793",
"/ c #687595",
"( c #677598",
") c #6C7999",
"_ c #6F7C9D",
"` c #717E9E",
"' c None",
/* pixels */
"''''''''''''''''''''''''''''''''",
"''''''''''''''''''''''''''''''''",
": 3:: $w, 30,$3:''wwy0''''''''''",
"ZI`SZI`EIE`E~L`S'')(!(''''''''''",
"CQ^lCQ''''''''^l''^zmQ''''''''''",
"hFIygF''''''''Iy''YygJ''''''''''",
"l((zb(''''''''(z''(AI(''''''''''",
"hE^whE''''''''^w''^mPE''''''''''",
"d!Qlj!''''''''Ql''''''''''''''''",
"CQ_nCQ''''''''_n''''''''''''''''",
"wJF0wJkw, ,w,XGw''''''''''''''''",
"ZI`SZI`EIE`E~J`S''''''''''''''''",
"''''''''''''''''''''''''''''''''",
"''''''''''''''''''''''''''''''''",
": 3:: %w,.,w,$,:''''''''''''''''",
"ZI`SZI`EIE`E~L`S''''''''''''''''",
",8J-,9DivvviJ9L-''mpvz''''''''''",
"O-l*+;m7v;D7m5d*''D8z-''''''''''",
"&p7&&i1V9t,Vrd7&'',V9i''''''''''",
"*i7o-i777d777d7X''777d''''''''''",
"38L-,9DivzmiJ8L-''mpvz''''''''''",
"@-d%+;V7v-V7m4d*''m7d7''''''''''",
"&p8*&i,m9r4V9d9*''4V9t''''''''''",
"O&@.+&&-&=@=@-&.'',-&:''''''''''",
"''''''''''''''''''''''''''''''''",
"''''''''''''''''''''''''''''''''",
"''''''''''''''''''''''''''''''''",
"''''''''''''''''''''''''''''''''",
"''''''''''''''''''''''''''''''''",
"''''''''''''''''''''''''''''''''",
"''''''''''''''''''''''''''''''''",
"''''''''''''''''''''''''''''''''"
};
