<?xml version="1.0" encoding="utf-8"?>
<svg version="1.1" id="Calque_1" xmlns="http://www.w3.org/2000/svg" xmlns:xlink="http://www.w3.org/1999/xlink" x="0px" y="0px" viewBox="0 0 56.7 40" style="enable-background:new 0 0 56.7 40;" xml:space="preserve">
<g transform="translate(20.000000, 33.000000)">
	<g id="Group-3">
		<g id="Clip-2">
		</g>
		<defs>
			<filter id="Adobe_OpacityMaskFilter" filterUnits="userSpaceOnUse" x="-20" y="-32.8" width="31.6" height="39.8">
				<feColorMatrix  type="matrix" values="1 0 0 0 0  0 1 0 0 0  0 0 1 0 0  0 0 0 1 0"/>
			</filter>
		</defs>
		
			<mask maskUnits="userSpaceOnUse" x="-20" y="-32.8" width="31.6" height="39.8" id="mask-3_00000136393571599085769890000005397787289770485635_">
			<g class="st0">
				<polygon id="path-2_00000082355340898432548830000006153052653741201339_" class="st1" points="-20,-32.8 11.6,-32.8 11.6,7 -20,7"/>
			</g>
		</mask>
		<polyline id="Fill-1" class="st2" points="11.6,-32.8 1.1,-32.8 -20,-11.9 -20,-3.4 1.1,-3.4 1.1,7 11.6,7 11.6,-11.9 -9.5,-11.9 
			11.6,-32.8 		"/>
	</g>
	<polyline id="Fill-4" class="st3" points="15.3,-22.8 25.6,-33 15.3,-33 15.3,-22.8"/>
	<polyline id="Fill-5" class="st3" points="36.7,-22.5 36.7,-33 26.5,-33 26.5,-22.5 16.3,-11.9 16.3,-1.4 26.5,-1.4 26.5,-11.9 36.7,-22.5"/>
	<polyline id="Fill-6" class="st3" points="36.7,-11.6 26.5,-1.4 36.7,-1.4 36.7,-11.6"/>
</g>
</svg>
